<svg height="512pt" viewBox="-22 0 512 512.00104" width="512pt" xmlns="http://www.w3.org/2000/svg"><path d="m426.292969 488.515625-23.125 23.125h-106.167969l76.199219-75.085937 31.859375 30.722656zm0 0" fill="#515f75"/><path d="m426.292969 488.515625-23.125 23.125h-42.472657l44.363282-44.363281zm0 0" fill="#3b485b"/><path d="m435.765625 436.558594h-62.574219v75.082031h62.574219c6.917969 0 12.507813-5.605469 12.507813-12.507813v-50.066406c0-6.902344-5.589844-12.507812-12.507813-12.507812zm0 0" fill="#f4af9d"/><path d="m435.765625 436.558594h-62.574219v44.820312h62.574219c6.917969 0 12.507813-5.589844 12.507813-12.503906v-19.808594c0-6.902344-5.589844-12.507812-12.507813-12.507812zm0 0" fill="#f9c2af"/><path d="m467.402344 446.921875v35.933594c0 16.097656-13.035156 29.144531-29.128906 29.144531h-65.078126v-130.664062c0-9.328126 7.5625-16.886719 16.886719-16.886719 9.328125 0 16.890625 7.558593 16.890625 16.886719v36.445312h31.300782c16.09375-.003906 29.128906 13.046875 29.128906 29.140625zm0 0" fill="#f4af9d"/><path d="m467.402344 446.921875v35.933594c0 15.027343-11.363282 27.402343-25.988282 28.964843-14.613281-1.554687-26.003906-13.9375-26.003906-28.964843v-35.933594c0-15.027344 11.390625-27.414063 26.003906-28.964844 14.625 1.5625 25.988282 13.9375 25.988282 28.964844zm0 0" fill="#f9c2af"/><path d="m296.621094 446.71875v65.28125h-286.226563v-65.28125c0-28.050781 22.734375-50.785156 50.773438-50.785156h184.667969c28.050781 0 50.785156 22.734375 50.785156 50.785156zm0 0" fill="#3b485b"/><path d="m296.621094 446.71875v65.28125h-268.828125v-65.28125c0-28.050781 22.734375-50.785156 50.785156-50.785156h167.257813c28.050781 0 50.785156 22.734375 50.785156 50.785156zm0 0" fill="#515f75"/><path d="m62.601562 395.941406-3.082031 78.09375 32.828125 8.210938-29.472656 29.472656h181.261719l-29.472657-29.472656 32.828126-8.210938-3.082032-78.09375" fill="#3b485b"/><path d="m216.089844 395.941406-33.066406 116.054688h-59.027344l-33.066406-116.054688" fill="#f2f2f2"/><path d="m113.0625 424.433594 40.449219 50.628906 40.042969-50.4375-40.042969-7.484375z" fill="#f74866"/><path d="m109.507812 461.140625 44.003907-44 44 44 18.578125-65.199219h-125.160156zm0 0" fill="#e6e6e6"/><path d="m191.128906 330.734375v65.210937l-37.617187 21.195313-11.625-6.546875-25.996094-14.648438v-65.25l25.996094.011719zm0 0" fill="#f9c2af"/><path d="m124.199219 511.996094 29.3125-36.933594 29.511719 36.933594" fill="#f74866"/><path d="m141.886719 330.707031-25.996094-.011719v65.246094l25.996094 14.652344v-30.171875c3.84375.378906 7.734375.59375 11.675781.59375 13.132812 0 25.769531-2.144531 37.570312-6.105469v-44.175781zm0 0" fill="#ea9e8f"/><path d="m35.46875 262.082031c-19.589844 0-35.46875-14.214843-35.46875-31.75 0-17.535156 15.878906-31.75 35.46875-31.75h236.1875c19.589844 0 35.46875 14.214844 35.46875 31.75 0 17.535157-15.878906 31.75-35.46875 31.75" fill="#ea9e8f"/><path d="m271.660156 129.089844v118.101562c0 65.21875-52.871094 118.09375-118.101562 118.09375-32.601563 0-62.136719-13.222656-83.503906-34.589844-21.363282-21.367187-34.585938-50.898437-34.585938-83.503906v-118.101562zm0 0" fill="#f9c2af"/><path d="m152.722656 365.28125c-32.277344-.21875-61.472656-13.394531-82.667968-34.582031-21.371094-21.378907-34.585938-50.894531-34.585938-83.507813v-118.097656h53.167969v118.097656c0 32.613282 7.261719 62.128906 19.015625 83.507813 11.566406 21.039062 27.472656 34.171875 45.070312 34.582031zm0 0" fill="#ea9e8f"/><path d="m195.574219 245.902344c-4.328125 0-7.832031-3.503906-7.832031-7.832032v-16.410156c0-4.324218 3.503906-7.832031 7.832031-7.832031 4.324219 0 7.832031 3.507813 7.832031 7.832031v16.410156c0 4.328126-3.507812 7.832032-7.832031 7.832032zm0 0" fill="#293544"/><path d="m111.550781 245.902344c-4.324219 0-7.832031-3.503906-7.832031-7.832032v-16.410156c0-4.324218 3.507812-7.832031 7.832031-7.832031 4.328125 0 7.832031 3.507813 7.832031 7.832031v16.410156c0 4.328126-3.503906 7.832032-7.832031 7.832032zm0 0" fill="#293544"/><path d="m271.660156 129.089844v29.597656c-8.09375 5.796875-17.773437 10.882812-29.269531 15.027344-42.796875 15.414062-84.226563 10.222656-113.519531 2.058594 0 0-.007813 0-.007813-.011719-25.523437-7.101563-41.835937-16.480469-41.835937-16.480469s-10.769532 51.832031-51.558594 51.832031v-82.023437zm0 0" fill="#ea9e8f"/><path d="m242.386719 161.183594c-42.792969 15.417968-84.21875 10.226562-113.519531 2.0625 0 0-.011719 0-.011719-.011719-25.511719-7.109375-41.824219-16.488281-41.824219-16.488281s-10.773438 51.832031-51.566406 51.832031c0 0-27.132813-48.003906-26.28125-92.417969.4375-23.03125 19.429687-40.253906 41.015625-40.253906 4.03125 0 8.15625.59375 12.257812 1.875 11.5625-31.042969 42.105469-50.691406 75.171875-48.679688 5.148438.320313 10.332032.730469 15.53125 1.199219.996094.085938 2 .175781 2.996094.269531.101562.007813.203125.019532.308594.027344 53.972656 5.070313 108.644531 14.941406 140.765625-20.597656 0 0 53.09375 122.300781-54.84375 161.183594zm0 0" fill="#515f75"/><path d="m137.628906 19.101562c5.152344.320313 10.332032.730469 15.53125 1.199219-47.621094-2.007812-85.457031 102.871094-24.304687 142.933594-25.511719-7.109375-41.824219-16.488281-41.824219-16.488281s-10.773438 51.832031-51.566406 51.832031c0 0-27.132813-48.003906-26.28125-92.417969.4375-23.03125 19.429687-40.253906 41.015625-40.253906 4.03125 0 8.15625.59375 12.257812 1.875 11.566407-31.042969 42.105469-50.6875 75.171875-48.679688zm0 0" fill="#3b485b"/><path d="m156.484375 20.609375c-.113281-.019531-.214844-.027344-.328125-.039063.101562.011719.207031.019532.308594.03125zm0 0" fill="#f4af9d"/><path d="m153.5625 308.660156c-12.5 0-24.996094-4.757812-34.511719-14.273437-3.058593-3.058594-3.058593-8.015625 0-11.074219 3.058594-3.058594 8.019531-3.058594 11.078125 0 12.921875 12.921875 33.945313 12.921875 46.867188 0 3.058594-3.058594 8.019531-3.058594 11.078125 0 3.058593 3.058594 3.058593 8.015625 0 11.074219-9.515625 9.515625-22.015625 14.273437-34.511719 14.273437zm0 0" fill="#e06e86"/></svg>