<svg id="Capa_1" enable-background="new 0 0 497 497" height="512" viewBox="0 0 497 497" width="512" xmlns="http://www.w3.org/2000/svg"><g><path d="m347.9 82.833c9.15 0 16.567 7.417 16.567 16.567v33.133c0 9.15-7.417 16.567-16.567 16.567h-198.8c-9.15 0-16.567-7.417-16.567-16.567v-33.133c0-9.149 7.417-16.567 16.567-16.567z" fill="#f8aa8b"/><path d="m323.05 331.333 99.654 26.574c14.504 3.868 24.596 17.004 24.596 32.015v98.795c0 4.575-3.709 8.283-8.283 8.283h-381.034c-4.575 0-8.283-3.709-8.283-8.283v-98.795c0-15.011 10.092-28.147 24.596-32.015l99.654-26.574h74.55z" fill="#d0e2ed"/><path d="m447.3 488.717v-98.795c0-15.011-10.092-28.147-24.596-32.015l-99.654-26.574-35.55 165.667h151.517c4.574 0 8.283-3.709 8.283-8.283z" fill="#118df0"/><path d="m49.7 488.717v-98.795c0-15.011 10.092-28.147 24.596-32.015l99.654-26.574 35.55 165.667h-151.517c-4.574 0-8.283-3.709-8.283-8.283z" fill="#118df0"/><path d="m422.704 357.908-21.467-5.725c13.676 4.358 23.063 17.087 23.063 31.563v104.971c0 4.575-3.708 8.283-8.283 8.283h23c4.575 0 8.283-3.709 8.283-8.283v-98.795c0-15.011-10.092-28.147-24.596-32.014z" fill="#1179f0"/><path d="m231.933 397.6-8.283 99.4h49.7l-8.283-99.4.779-3.897h-34.692z" fill="#ff4b68"/><path d="m231.154 393.703.779 3.897-1.916 23h36.966l-1.916-23 .779-3.897z" fill="#f73152"/><path d="m207.083 256.5h82.833v84.333h-82.833z" fill="#f8c09c"/><path d="m207.083 293.524c12.187 7.053 26.324 11.109 41.417 11.109s29.23-4.057 41.417-11.109v-37.023l-82.833-.001v37.024z" fill="#f8aa8b"/><path d="m331.333 57.833v140.967c0 45.748-37.086 82.833-82.833 82.833s-82.833-37.086-82.833-82.833v-140.967z" fill="#f8c09c"/><g><path d="m265.066 231.15h-33.133c-4.143 0-7.5-3.357-7.5-7.5s3.357-7.5 7.5-7.5h33.133c4.143 0 7.5 3.357 7.5 7.5s-3.357 7.5-7.5 7.5z" fill="#f8aa8b"/></g><path d="m323.05 331.333h-149.1l16.15 35.889 19.477 15.613c3.296 2.637 8.047 2.374 11.032-.611l27.891-27.891 27.891 27.891c2.984 2.984 7.736 3.248 11.032.611l19.354-15.339z" fill="#aabfcf"/><g fill="#d0e2ed"><path d="m173.95 331.333 35.627 28.502c3.296 2.637 8.047 2.374 11.032-.611l27.891-27.891-41.417-33.133z"/><path d="m289.917 298.2-41.417 33.133 27.891 27.891c2.984 2.984 7.736 3.248 11.032.611l35.627-28.502z"/></g><path d="m248.5 331.333-24.85 24.85 8.283 41.417h33.134l8.283-41.417z" fill="#ff4b68"/><path d="m227.483 375.35 21.017-21.017 21.017 21.017 3.833-19.167-24.85-24.85-24.85 24.85z" fill="#f73152"/><path d="m198.8 0c-18.299 0-33.133 14.834-33.133 33.133v49.7h24.85c4.575 0 8.283-3.708 8.283-8.283 0-4.575 3.709-8.283 8.283-8.283h82.833c4.575 0 8.283 3.708 8.283 8.283 0 4.575 3.709 8.283 8.283 8.283h24.85v-49.7c.001-18.299-14.833-33.133-33.132-33.133z" fill="#887575"/><path d="m248.5 281.633c45.748 0 82.833-37.086 82.833-82.833v-57.983c0 27.449-22.251 49.7-49.7 49.7h-66.267c-27.449 0-49.7-22.251-49.7-49.7v57.983c.001 45.748 37.086 82.833 82.834 82.833z" fill="#887575"/><path d="m198.8 497-52.869-60.422c-2.587-2.957-1.682-7.561 1.832-9.318l15.454-7.727c4.422-2.211 4.422-8.522 0-10.733l-17.322-8.661c-2.849-1.424-4.088-4.826-2.823-7.749l25.837-59.712 5.042-1.344 74.549 165.666z" fill="#394d5c"/><path d="m248.5 497 74.55-165.667 5.042 1.344 25.837 59.712c1.265 2.923.025 6.325-2.823 7.749l-17.322 8.661c-4.422 2.211-4.422 8.522 0 10.733l15.454 7.727c3.514 1.757 4.419 6.361 1.832 9.318l-52.87 60.423z" fill="#394d5c"/><g><path d="m223.933 149.1h-25.417c-4.418 0-8-3.582-8-8v-25.133h41.417v25.133c0 4.418-3.581 8-8 8z" fill="#8bdeff"/><path d="m298.483 149.1h-25.417c-4.418 0-8-3.582-8-8v-25.133h41.417v25.133c0 4.418-3.581 8-8 8z" fill="#8bdeff"/><g><path d="m331.333 123.467h-165.667c-4.142 0-7.5-3.357-7.5-7.5s3.358-7.5 7.5-7.5h165.667c4.142 0 7.5 3.357 7.5 7.5 0 4.142-3.357 7.5-7.5 7.5z" fill="#d0e2ed"/></g></g><g><path d="m265.067 231.15h-33.134c-4.142 0-7.5-3.357-7.5-7.5s3.358-7.5 7.5-7.5h33.134c4.142 0 7.5 3.357 7.5 7.5s-3.358 7.5-7.5 7.5z" fill="#394d5c"/></g></g></svg>