<?xml version="1.0" encoding="utf-8"?>
<!-- Generator: Adobe Illustrator 16.0.3, SVG Export Plug-In . SVG Version: 6.00 Build 0)  -->
<!DOCTYPE svg PUBLIC "-//W3C//DTD SVG 1.1//EN" "http://www.w3.org/Graphics/SVG/1.1/DTD/svg11.dtd">
<svg version="1.1" id="Capa_1" xmlns="http://www.w3.org/2000/svg" xmlns:xlink="http://www.w3.org/1999/xlink" x="0px" y="0px"
	 width="647.734px" height="254px" viewBox="0 0 647.734 254" enable-background="new 0 0 647.734 254" xml:space="preserve">
<rect x="0" opacity="0" fill="#314A5E" stroke="#000000" stroke-width="2" stroke-miterlimit="10" width="647.734" height="254"/>
<path fill="#314A5E" stroke="#000000" stroke-width="2" stroke-miterlimit="10" d="M673.661,124.5"/>
<path fill="#75A584" d="M615.875,96.45l0.999-0.14l5.96-27.714l-7.071-14.698l-40.571,5.704l-1.67,0.541l1.664-7.727l-6.158,0.865
	l-1.927,8.951l-4.629,1.506l1.659-7.72l-0.922-1.921l-46.244,6.5l-4.158,19.33l-0.674,0.22l-3.413,15.865
	c-1.256-2.18-2.615-4.204-4.075-6.076l3.361-15.616c-1.895-1.577-3.888-2.969-6.006-4.175c-8.023-4.565-17.064-6.136-27.13-4.72
	c-9.821,1.379-16.182,5.165-19.082,11.356c-0.722,1.54-1.198,3.19-1.447,4.95c0.063-0.451,0.142-0.893,0.233-1.329l-4.283,19.908
	l-4.844,1.582l-2.37,11.016c-0.757-0.816-1.552-1.606-2.431-2.341c-0.593-0.494-1.229-0.953-1.888-1.397l4.348-20.201l0.033-0.006
	c-0.008-0.013-0.018-0.025-0.024-0.037l0.018-0.077l-0.061,0.012c-3.697-6.025-8.242-10.182-13.632-12.451
	c-5.403-2.284-11.984-2.903-19.716-1.85c-6.312,0.857-10.896,2.312-13.779,4.375c-2.845,2.033-4.529,4.518-5.051,7.453
	c0.021-0.106,0.038-0.214,0.063-0.321l-4.789,22.25l-13.216-27.479l-18.744,2.634l-5.963,27.712l13.639,28.355
	c-0.417-0.07-0.821-0.168-1.188-0.325c-1.427-0.645-2.675-1.57-3.704-2.773c-0.778-0.889-1.623-2.172-2.522-3.821l-16.301,5.31
	l-0.827,3.854l-0.781-1.622l-15.358,2.161l-6.215,2.023l1.437-6.666l2.252-0.727l-2.162,0.301l0.123-0.568l-1.936,0.631
	l-22.654-46.611l-19.7,2.741l24.205,49.793l-0.59,0.19l-23.328-48.49l-3.52,16.362c-4.477-4.664-9.19-8.038-14.159-10.104
	c-5.825-2.424-12.551-3.098-20.166-2.031c-9.739,1.373-15.999,5.076-18.779,11.124c-0.504,1.095-0.88,2.254-1.135,3.473
	c0.004-0.025,0.005-0.051,0.01-0.076c-1.986,9.24-3.974,18.476-5.962,27.713c-1.188,5.525,0.167,12.34,4.063,20.44
	c3.559,7.397,7.994,13.246,13.296,17.562c0.654,0.529,1.308,1.033,1.96,1.521c0.201,0.148,0.4,0.289,0.602,0.434
	c0.451,0.33,0.904,0.647,1.354,0.953c0.235,0.159,0.472,0.313,0.707,0.465c0.418,0.274,0.836,0.541,1.252,0.793
	c0.243,0.147,0.485,0.297,0.729,0.438c0.415,0.241,0.829,0.475,1.242,0.693c0.161,0.089,0.322,0.188,0.484,0.271l0.001-0.007
	c0.001,0,0.001,0,0.001,0l-0.002,0.007c0.061,0.035,0.123,0.058,0.183,0.089c0.734,0.381,1.462,0.731,2.191,1.051
	c0.125,0.053,0.25,0.1,0.375,0.154c0.416,0.176,0.83,0.327,1.243,0.483l-2.15,9.995c1.041,0.21,2.119,0.361,3.215,0.488
	c0.3,0.033,0.607,0.06,0.912,0.088c0.342,0.035,0.679,0.08,1.027,0.104c0.745,0.049,1.502,0.083,2.271,0.096c0.004,0,0.01,0,0.016,0
	c1.18,0.018,2.399-0.024,3.642-0.096c0.211-0.012,0.42-0.021,0.634-0.036c0.97-0.067,1.954-0.155,2.963-0.276
	c0.352-0.043,0.706-0.09,1.061-0.141c0.676-0.096,1.33-0.199,1.965-0.312c0.222-0.043,0.428-0.093,0.644-0.134
	c0.402-0.08,0.81-0.157,1.194-0.243c0.26-0.058,0.502-0.126,0.756-0.192c0.322-0.079,0.651-0.154,0.96-0.24
	c0.258-0.074,0.498-0.156,0.746-0.231c0.283-0.087,0.575-0.167,0.846-0.263c0.248-0.084,0.479-0.181,0.715-0.267
	c0.253-0.095,0.514-0.187,0.754-0.287c0.233-0.095,0.446-0.202,0.671-0.301c0.226-0.104,0.46-0.201,0.673-0.308
	c0.215-0.109,0.41-0.227,0.614-0.336c0.203-0.109,0.417-0.221,0.61-0.336c0.191-0.112,0.364-0.24,0.545-0.361
	c0.175-0.113,0.361-0.225,0.526-0.346c0.021-0.018,0.042-0.031,0.062-0.047c0.61-0.445,1.168-0.93,1.683-1.443
	c0.172-0.172,0.312-0.37,0.473-0.549c0.321-0.354,0.649-0.709,0.928-1.094c0.015-0.016,0.03-0.031,0.043-0.051
	c0.268-0.365,0.489-0.768,0.72-1.162c0.108-0.184,0.239-0.357,0.341-0.548c0.327-0.617,0.616-1.267,0.867-1.94
	c0.001,0,0.001-0.004,0.001-0.004l1.887-8.77l5.839-1.902c0.011-0.052,0.022-0.104,0.034-0.154l4.521-21.021l6.167,12.82
	l-2.769,12.873l4.545,9.451l47.896-6.73l1.772-8.248c0.062,0.051,0.115,0.111,0.173,0.162c0.861,0.74,1.745,1.417,2.656,2.043
	c0.289,0.197,0.594,0.357,0.889,0.54c0.631,0.401,1.259,0.805,1.914,1.151c0.047,0.023,0.091,0.058,0.14,0.082
	c0.767,0.4,1.555,0.756,2.354,1.084c0.208,0.084,0.418,0.162,0.624,0.244c0.327,0.125,0.646,0.262,0.978,0.375
	c0.546,0.187,1.097,0.36,1.655,0.517c0.523,0.144,1.063,0.274,1.613,0.389c0.474,0.095,0.963,0.17,1.459,0.244
	c0.105,0.017,0.211,0.037,0.32,0.052c0.71,0.1,1.436,0.176,2.189,0.229c0.215,0.014,0.457-0.005,0.676,0.007
	c0.72,0.035,1.472,0.035,2.229,0.027c0.613-0.004,1.217-0.004,1.854-0.034c0.792-0.038,1.626-0.122,2.459-0.202
	c0.498-0.047,0.956-0.059,1.471-0.119c0.362-0.047,0.734-0.095,1.105-0.148c0.957-0.134,1.852-0.31,2.713-0.504
	c0.229-0.05,0.454-0.102,0.679-0.16c0.811-0.196,1.59-0.418,2.318-0.678c0.031-0.008,0.067-0.019,0.1-0.029
	c0.75-0.267,1.438-0.576,2.104-0.899c0.172-0.089,0.339-0.175,0.507-0.263c0.615-0.328,1.203-0.68,1.737-1.063
	c0.021-0.012,0.046-0.024,0.067-0.038c0.004-0.004,0.01-0.012,0.015-0.017c0.305-0.222,0.581-0.461,0.858-0.701
	c0.104-0.091,0.225-0.171,0.325-0.267c0.371-0.338,0.718-0.696,1.034-1.073c0.25-0.298,0.482-0.601,0.704-0.905
	c0.05-0.068,0.086-0.14,0.134-0.213c0.209-0.293,0.391-0.598,0.567-0.898c0.118-0.199,0.243-0.394,0.347-0.591
	c0.184-0.347,0.333-0.704,0.479-1.059c0.058-0.144,0.136-0.276,0.188-0.413c0.008-0.023,0.013-0.046,0.021-0.064
	c0.188-0.515,0.343-1.037,0.458-1.57l5.958-27.713c-0.061,0.293-0.138,0.58-0.221,0.865c0.483-1.646,0.614-3.377,0.378-5.201
	c-0.305-2.293-1.146-5.179-2.499-8.632l1.188-5.529c0.006,0.012,0.01,0.022,0.014,0.033c0.279,0.58,0.577,1.136,0.898,1.683
	c0.106,0.182,0.229,0.348,0.339,0.524c0.221,0.357,0.441,0.713,0.678,1.056c0.146,0.2,0.309,0.392,0.456,0.59
	c0.229,0.303,0.45,0.604,0.691,0.892c0.173,0.202,0.359,0.394,0.543,0.59c0.239,0.269,0.474,0.539,0.728,0.789
	c0.194,0.198,0.406,0.381,0.611,0.569c0.047,0.045,0.096,0.086,0.143,0.132l-5.156,23.974c3.414,5.94,8.036,10.58,13.867,13.927
	c0.232,0.134,0.471,0.263,0.71,0.389c0.157,0.081,0.342,0.134,0.5,0.214c0.729,0.357,1.485,0.682,2.274,0.975
	c0.177,0.064,0.327,0.152,0.504,0.215c0.104,0.037,0.226,0.057,0.329,0.09c1.026,0.34,2.086,0.643,3.212,0.873
	c0.006,0,0.01,0,0.019,0.005c0.854,0.174,1.747,0.313,2.663,0.425c0.293,0.036,0.599,0.06,0.892,0.09
	c0.446,0.041,0.878,0.1,1.334,0.129c0.23,0.016,0.475,0.016,0.709,0.026c0.305,0.019,0.611,0.026,0.921,0.038
	c0.735,0.023,1.49,0.025,2.257,0.01c0.271-0.002,0.542,0,0.817-0.006c1.026-0.033,2.076-0.091,3.156-0.183
	c0.242-0.019,0.496-0.052,0.742-0.076c0.62-0.06,1.228-0.114,1.863-0.19c0.432-0.053,0.865-0.109,1.305-0.172
	c5.865-0.826,10.314-2.347,13.356-4.55c0.011-0.013,0.025-0.019,0.038-0.03c0.675-0.486,1.283-1.013,1.837-1.572
	c0.166-0.166,0.3-0.353,0.456-0.526c0.315-0.347,0.646-0.69,0.918-1.063c0.051-0.074,0.088-0.148,0.137-0.222
	c0.092-0.133,0.174-0.278,0.261-0.415c0.307-0.484,0.578-0.982,0.815-1.504c0.074-0.17,0.157-0.333,0.226-0.504
	c0.044-0.111,0.104-0.213,0.146-0.324c0.211-0.574,0.385-1.17,0.518-1.787l3.151-14.646c2.551,3.905,5.448,7.243,8.7,9.998
	c0.652,0.556,1.314,1.086,1.979,1.597c0.202,0.155,0.41,0.297,0.61,0.444c0.464,0.349,0.932,0.69,1.399,1.01
	c0.243,0.169,0.489,0.324,0.733,0.483c0.435,0.287,0.868,0.568,1.303,0.836c0.263,0.16,0.525,0.309,0.787,0.462
	c0.426,0.243,0.848,0.487,1.276,0.715c0.099,0.055,0.194,0.112,0.292,0.165c0.138,0.072,0.277,0.126,0.418,0.197
	c0.581,0.298,1.167,0.576,1.755,0.839c0.229,0.103,0.451,0.206,0.681,0.301c0.693,0.294,1.394,0.569,2.097,0.817
	c0.084,0.028,0.168,0.067,0.255,0.098c0.019,0.004,0.041,0.012,0.06,0.02c0.706,0.24,1.413,0.461,2.127,0.655
	c0.729,0.197,1.47,0.373,2.218,0.531c0.035,0.006,0.071,0.019,0.105,0.026c0.15,0.028,0.312,0.049,0.463,0.076
	c0.622,0.12,1.252,0.229,1.893,0.319c0.291,0.042,0.585,0.076,0.88,0.11c0.55,0.063,1.106,0.121,1.668,0.166
	c0.18,0.017,0.347,0.043,0.526,0.054c0.171,0.012,0.352,0.012,0.523,0.019c0.372,0.023,0.746,0.034,1.124,0.047
	c0.395,0.015,0.789,0.022,1.188,0.022c0.395,0.005,0.793,0,1.192-0.008c0.396-0.006,0.793-0.019,1.194-0.033
	c0.407-0.021,0.819-0.042,1.234-0.075c0.406-0.025,0.812-0.052,1.221-0.089c0.422-0.034,0.842-0.08,1.27-0.125
	c0.239-0.026,0.477-0.041,0.717-0.073c0.354-0.046,0.712-0.09,1.073-0.14c0.78-0.11,1.533-0.241,2.271-0.377
	c0.235-0.046,0.466-0.101,0.697-0.146c0.491-0.103,0.977-0.205,1.442-0.324c0.259-0.061,0.513-0.129,0.767-0.198
	c0.425-0.114,0.841-0.231,1.247-0.358c0.251-0.074,0.5-0.154,0.739-0.234c0.402-0.135,0.79-0.28,1.172-0.424
	c0.218-0.084,0.438-0.166,0.649-0.256c0.426-0.176,0.834-0.361,1.237-0.556c0.146-0.067,0.292-0.134,0.435-0.201
	c0.528-0.268,1.037-0.55,1.52-0.846c0.118-0.073,0.223-0.153,0.34-0.226c0.295-0.19,0.596-0.381,0.874-0.584
	c0.049-0.033,0.082-0.072,0.134-0.105c0.532-0.396,1.037-0.809,1.503-1.246c0.564-0.531,1.067-1.095,1.544-1.675
	c0.113-0.138,0.228-0.277,0.336-0.419c0.097-0.123,0.203-0.24,0.294-0.365c0.225-0.309,0.402-0.643,0.603-0.965
	c0.148-0.236,0.31-0.469,0.445-0.711c0.305-0.551,0.56-1.126,0.796-1.708c0.063-0.15,0.139-0.283,0.192-0.435
	c0.007-0.016,0.018-0.033,0.022-0.047c0.279-0.754,0.506-1.539,0.682-2.354l5.127-23.833l15.312,31.827l18.776-2.641l5.761-26.788
	l5.981-0.841l4.862-22.598l14.151-1.991l21.58,44.863l18.714-2.63l5.961-27.711L615.875,96.45z M373.255,153.031
	c0.159-0.026,0.322-0.052,0.479-0.081c-0.157,0.029-0.318,0.059-0.479,0.086V153.031z M245.677,142.881
	c0.42,0.263,0.836,0.542,1.25,0.843c0.597,0.435,1.264,1.041,1.991,1.789c-0.573-0.293-1.14-0.613-1.697-0.99
	c-0.859-0.578-1.717-1.326-2.571-2.219c0.213,0.114,0.426,0.231,0.637,0.357C245.416,142.737,245.547,142.806,245.677,142.881z
	 M244.638,112.787c0.533,0.039,1.067,0.115,1.602,0.221c-0.004-0.001-0.01-0.002-0.016-0.003
	C245.698,112.899,245.168,112.826,244.638,112.787z M268.628,126.714l3.922,8.152l-5.514-0.758L268.628,126.714z M261.503,145.806
	c-1.055,0.559-2.358,0.959-3.937,1.18c-1.793,0.253-3.534,0.182-5.218-0.203l9.79-3.932L261.503,145.806z M237.716,114.31
	c-0.024,0.016-0.049,0.031-0.075,0.046c0.14-0.092,0.281-0.181,0.43-0.265C237.948,114.161,237.831,114.233,237.716,114.31z
	 M238.533,113.86c0.215-0.104,0.428-0.212,0.661-0.302c-0.143,0.058-0.274,0.12-0.411,0.182
	C238.698,113.776,238.618,113.82,238.533,113.86z M240.773,157.353C240.772,157.351,240.772,157.351,240.773,157.353
	c-0.232-0.125-0.466-0.248-0.698-0.375c-0.015-0.008-0.028-0.016-0.042-0.023C240.279,157.087,240.526,157.224,240.773,157.353z
	 M243.375,158.569c-0.012-0.006-0.023-0.01-0.035-0.016c-0.132-0.057-0.264-0.104-0.396-0.162c-0.001-0.002-0.003-0.002-0.005-0.002
	C243.086,158.454,243.231,158.507,243.375,158.569z M248.488,113.645c0.276,0.101,0.551,0.209,0.823,0.326
	C249.038,113.857,248.764,113.747,248.488,113.645z M249.71,114.15c0.232,0.106,0.466,0.208,0.697,0.328
	C250.176,114.358,249.945,114.255,249.71,114.15z M251.331,114.994c0.098,0.057,0.197,0.107,0.294,0.168
	C251.528,115.103,251.429,115.05,251.331,114.994z M243.304,112.757c-0.071,0.003-0.146,0.009-0.218,0.015
	C243.158,112.769,243.233,112.76,243.304,112.757z M240.459,113.154c-0.139,0.039-0.268,0.083-0.405,0.123
	c-0.068,0.021-0.133,0.044-0.202,0.066C240.054,113.278,240.246,113.208,240.459,113.154z M237.089,114.756
	c-0.097,0.081-0.192,0.161-0.285,0.242c-0.101,0.091-0.191,0.19-0.287,0.287C236.698,115.101,236.885,114.922,237.089,114.756z
	 M236.036,115.814c-0.023,0.032-0.047,0.059-0.073,0.087c0.089-0.119,0.192-0.227,0.29-0.339
	C236.179,115.645,236.106,115.728,236.036,115.814z M235.744,116.237c-0.185,0.275-0.348,0.566-0.498,0.867
	C235.392,116.798,235.561,116.511,235.744,116.237z M234.929,117.851c-0.06,0.172-0.104,0.358-0.156,0.54
	C234.824,118.208,234.87,118.023,234.929,117.851z M217.737,131.438c-0.068-0.16-0.14-0.322-0.204-0.481
	C217.597,131.116,217.668,131.277,217.737,131.438z M216.565,128.45c-0.051-0.14-0.096-0.276-0.144-0.414
	C216.468,128.174,216.513,128.311,216.565,128.45z M214.59,115.624c-0.015,0.134-0.025,0.27-0.038,0.405
	C214.564,115.894,214.575,115.759,214.59,115.624z M214.474,118.009c0,0.077,0.008,0.158,0.009,0.237
	C214.482,118.166,214.474,118.086,214.474,118.009z M215.667,125.65c-0.011-0.041-0.025-0.084-0.037-0.125
	C215.641,125.566,215.656,125.609,215.667,125.65z M215.071,123.189c-0.031-0.148-0.063-0.298-0.091-0.445
	C215.007,122.891,215.038,123.041,215.071,123.189z M214.639,120.562c-0.013-0.116-0.021-0.229-0.031-0.343
	C214.618,120.334,214.626,120.446,214.639,120.562z M234.598,153.488c0.104,0.075,0.205,0.147,0.309,0.223
	c-0.013-0.008-0.025-0.017-0.037-0.026C234.779,153.62,234.689,153.554,234.598,153.488z M238.08,155.831
	c0.133,0.08,0.265,0.158,0.396,0.236c-0.127-0.076-0.255-0.151-0.382-0.229C238.09,155.836,238.086,155.833,238.08,155.831z
	 M376.635,152.263c0.395-0.115,0.79-0.233,1.164-0.365C377.425,152.026,377.034,152.149,376.635,152.263z M378.143,151.772
	c0.358-0.133,0.701-0.275,1.038-0.422C378.846,151.499,378.502,151.64,378.143,151.772z M380.062,150.944
	c-0.008,0.004-0.014,0.006-0.019,0.009c0.146-0.072,0.292-0.147,0.434-0.224C380.341,150.802,380.202,150.876,380.062,150.944z
	 M381.382,150.222c0.337-0.207,0.671-0.412,0.979-0.637c-0.027,0.018-0.055,0.033-0.078,0.053
	C381.995,149.842,381.694,150.035,381.382,150.222z M383.372,148.761c0.064-0.058,0.14-0.107,0.203-0.167
	c-0.001,0.003-0.006,0.005-0.008,0.007C383.508,148.656,383.438,148.707,383.372,148.761z M386.332,144.956
	c0.021-0.038,0.038-0.075,0.056-0.112c-0.012,0.026-0.021,0.054-0.036,0.08C386.346,144.935,386.34,144.946,386.332,144.956z
	 M387.042,143.38c-0.026,0.072-0.063,0.145-0.093,0.217c0.076-0.199,0.152-0.397,0.218-0.6
	C387.126,143.124,387.088,143.253,387.042,143.38z M476.737,119.204c-2.292-1.497-4.438-3.782-6.457-6.827l7.168-2.33l-1.662,7.725
	c0.061,0.034,0.121,0.068,0.183,0.098c0.095,0.051,0.189,0.1,0.284,0.147c0.144,0.074,0.286,0.147,0.429,0.238
	c1.084,0.691,2.123,1.557,3.124,2.559C478.769,120.389,477.744,119.861,476.737,119.204z M495.687,114.646
	c0.014-0.398,0.008-0.812-0.028-1.255C495.695,113.834,495.7,114.248,495.687,114.646z M495.676,114.913
	c-0.022,0.384-0.063,0.749-0.135,1.088C495.613,115.662,495.654,115.297,495.676,114.913z M454.682,89.695
	c0.117,0.613,0.252,1.234,0.413,1.868C454.936,90.929,454.8,90.308,454.682,89.695z M454.172,85.562
	c0.023,0.563,0.07,1.137,0.135,1.719C454.242,86.699,454.198,86.125,454.172,85.562z M454.369,87.767
	c0.058,0.45,0.129,0.906,0.209,1.367C454.498,88.673,454.426,88.216,454.369,87.767z M454.17,83.844
	c-0.016,0.443-0.017,0.896-0.005,1.351C454.154,84.739,454.155,84.287,454.17,83.844z M454.319,81.944
	c-0.061,0.463-0.101,0.934-0.128,1.413C454.218,82.878,454.259,82.408,454.319,81.944z M420.752,87.199
	c0.364,0.204,0.727,0.428,1.082,0.684c-0.204-0.143-0.415-0.262-0.622-0.39C421.057,87.397,420.906,87.295,420.752,87.199z
	 M421.937,87.963c0.384,0.282,0.761,0.594,1.132,0.937c-0.122-0.101-0.241-0.203-0.359-0.307
	C422.452,88.375,422.198,88.156,421.937,87.963z M423.835,89.658c0.131,0.137,0.257,0.281,0.383,0.424
	c-0.007-0.008-0.015-0.017-0.023-0.025C424.076,89.923,423.956,89.79,423.835,89.658z M419.96,86.798
	c-0.242-0.109-0.487-0.211-0.736-0.303C419.472,86.586,419.718,86.688,419.96,86.798z M418.897,86.381
	c-0.035-0.009-0.072-0.019-0.106-0.028c-0.172-0.058-0.353-0.1-0.53-0.149c-0.188-0.049-0.371-0.114-0.565-0.152
	C418.106,86.138,418.507,86.251,418.897,86.381z M413.152,85.938c1.604-0.218,3.101-0.181,4.491,0.104
	c-0.132-0.024-0.271-0.03-0.405-0.056c-0.234-0.039-0.475-0.068-0.715-0.096c-0.146-0.015-0.285-0.049-0.436-0.057
	c-0.247-0.019-0.506-0.012-0.763-0.016c-0.127,0-0.252-0.007-0.38-0.003c-0.504,0.007-1.012,0.039-1.536,0.104
	c-0.091,0.011-0.187,0.023-0.277,0.038c-0.483,0.069-0.919,0.16-1.329,0.267c-0.103,0.027-0.208,0.058-0.305,0.085
	c-0.35,0.102-0.669,0.217-0.953,0.347c-0.044,0.018-0.091,0.034-0.132,0.052c-0.255,0.126-0.49,0.263-0.698,0.412
	c-0.035,0.027-0.051,0.057-0.084,0.084c-0.157,0.122-0.279,0.258-0.403,0.396c-0.078,0.084-0.182,0.156-0.248,0.244
	c-0.035,0.05-0.068,0.099-0.101,0.149c-0.127,0.203-0.228,0.406-0.308,0.616c0.082-0.221,0.185-0.438,0.316-0.649
	C409.559,86.909,410.977,86.234,413.152,85.938z M408.463,88.963c0.021-0.096,0.049-0.193,0.083-0.289
	C408.51,88.77,408.485,88.867,408.463,88.963z M390.872,86.518c-0.056,0.308-0.093,0.615-0.122,0.924
	c0.028-0.286,0.061-0.572,0.107-0.856C390.861,86.562,390.868,86.541,390.872,86.518z M390.73,87.596
	c-0.233,2.608,0.291,5.255,1.568,7.938c2.224,4.673,5.813,8.265,10.762,10.807c0.478,0.241,0.984,0.47,1.505,0.694l-0.003,0.021
	c-0.498-0.213-0.979-0.432-1.435-0.66c-0.382-0.193-0.742-0.407-1.111-0.611c-0.271-0.153-0.549-0.301-0.81-0.462
	c-0.31-0.187-0.6-0.389-0.896-0.586c-0.252-0.168-0.508-0.328-0.75-0.503c-0.288-0.205-0.559-0.427-0.834-0.644
	c-0.229-0.184-0.465-0.354-0.683-0.541c-0.272-0.229-0.522-0.472-0.781-0.712c-0.202-0.191-0.42-0.375-0.615-0.572
	c-0.254-0.255-0.487-0.526-0.729-0.789c-0.179-0.199-0.369-0.39-0.542-0.595c-0.239-0.286-0.464-0.59-0.688-0.889
	c-0.15-0.197-0.313-0.388-0.456-0.594c-0.239-0.34-0.461-0.697-0.684-1.056c-0.109-0.175-0.23-0.342-0.334-0.521
	c-0.321-0.546-0.621-1.106-0.897-1.681C391.01,92.923,390.483,90.241,390.73,87.596z M429.512,143.312l0.003-0.01
	c0.272-0.035,0.531-0.054,0.808-0.092C430.049,143.248,429.784,143.278,429.512,143.312z M488.337,136.067
	c0.065,0,0.133-0.004,0.2-0.006c0,0,0,0.002,0.001,0.002c-0.035,0-0.071,0.002-0.106,0.004
	C488.398,136.067,488.368,136.067,488.337,136.067z M492.088,135.87c-0.278,0.025-0.553,0.042-0.832,0.063l0,0
	c0.305-0.023,0.604-0.043,0.908-0.069C492.139,135.865,492.113,135.867,492.088,135.87z M493.358,135.74c-0.007,0-0.009,0-0.013,0
	c0.597-0.066,1.19-0.13,1.796-0.214C494.539,135.61,493.949,135.675,493.358,135.74z M498.823,134.847
	c0.256-0.057,0.52-0.108,0.769-0.17c-0.011,0.002-0.021,0.004-0.03,0.008C499.321,134.741,499.069,134.792,498.823,134.847z
	 M500.663,134.386c0.321-0.09,0.648-0.179,0.961-0.275c-0.016,0.005-0.028,0.008-0.043,0.013
	C501.282,134.214,500.972,134.3,500.663,134.386z M502.291,133.896c-0.007,0.004-0.017,0.006-0.025,0.01
	c0.426-0.143,0.836-0.293,1.239-0.45c-0.002,0-0.002,0-0.004,0.002C503.106,133.608,502.706,133.754,502.291,133.896z
	 M504.982,132.829c0.157-0.073,0.318-0.14,0.476-0.214c-0.02,0.007-0.033,0.014-0.054,0.021
	C505.268,132.705,505.122,132.764,504.982,132.829z M505.788,132.459c-0.002,0.002-0.006,0.004-0.011,0.006
	c0.222-0.111,0.42-0.236,0.632-0.354C506.201,132.227,506.005,132.35,505.788,132.459z M508.167,131.03
	c0.168-0.115,0.342-0.226,0.504-0.345c-0.004,0.002-0.006,0.006-0.009,0.008C508.504,130.809,508.335,130.918,508.167,131.03z
	 M511.062,128.525c-0.284,0.315-0.575,0.625-0.893,0.923C510.487,129.15,510.774,128.839,511.062,128.525z M513.386,125.318
	c0.014-0.026,0.025-0.055,0.038-0.082c-0.012,0.025-0.023,0.051-0.036,0.076C513.387,125.314,513.386,125.314,513.386,125.318z"/>
<g>
	<g>
		<polygon fill="#C54357" stroke="#000000" stroke-width="2" stroke-miterlimit="10" points="587.465,54.627 581.504,82.339 
			575.816,84.189 581.778,56.475 		"/>
	</g>
	<g>
		<polygon fill="#C54357" stroke="#000000" stroke-width="2" stroke-miterlimit="10" points="581.778,56.475 575.816,84.189 
			575.342,83.206 581.308,55.491 		"/>
	</g>
	<g>
		<polygon fill="#C54357" stroke="#000000" stroke-width="2" stroke-miterlimit="10" points="587.465,54.627 581.778,56.475 
			581.308,55.491 		"/>
	</g>
</g>
<g>
	<polygon fill="#C54357" stroke="#000000" stroke-width="2" stroke-miterlimit="10" points="635.114,70.807 629.152,98.521 
		610.081,101.201 616.045,73.488 	"/>
</g>
<polygon fill="#C54357" stroke="#000000" stroke-width="2" stroke-miterlimit="10" points="578.263,78.797 572.301,106.512 
	591.37,103.83 597.333,76.118 "/>
<g>
	<polygon fill="#C54357" points="576.41,58.229 570.449,85.943 527.769,99.851 533.732,72.139 	"/>
</g>
<g>
	<polygon fill="#20303D" stroke="#000000" stroke-width="2" stroke-linejoin="round" stroke-miterlimit="10" points="
		578.263,78.797 572.301,106.512 566.48,94.413 572.443,66.699 	"/>
</g>
<g>
	<polygon fill="#20303D" stroke="#000000" stroke-width="2" stroke-linejoin="round" stroke-miterlimit="10" points="
		533.732,72.139 527.769,99.851 523.283,90.523 529.244,62.809 	"/>
</g>
<g>
	<polygon fill="#70B0C8" stroke="#000000" stroke-width="2" stroke-linejoin="round" stroke-miterlimit="10" points="
		575.489,56.309 576.41,58.229 533.732,72.139 529.244,62.809 	"/>
</g>
<polygon fill="#20303D" stroke="#000000" stroke-width="2" stroke-linejoin="round" stroke-miterlimit="10" points="597.333,76.118 
	591.37,103.83 612.951,148.692 618.916,120.98 "/>
<polygon fill="#C54357" stroke="#000000" stroke-width="2" stroke-miterlimit="10" points="618.916,120.98 612.951,148.692 
	631.662,146.063 637.625,118.351 "/>
<g>
	<polygon fill="#70B0C8" stroke="#000000" stroke-width="2" stroke-linejoin="round" stroke-miterlimit="10" points="
		628.043,56.109 635.114,70.807 616.045,73.488 637.625,118.351 618.916,120.98 597.333,76.118 578.263,78.797 572.443,66.699 
		587.47,61.812 	"/>
</g>
<g>
	<polygon fill="#263948" stroke="#000000" stroke-width="2" stroke-linejoin="round" stroke-miterlimit="10" points="
		571.528,77.707 565.568,105.422 538.114,109.279 544.078,81.566 	"/>
</g>
<g>
	<polygon fill="#C54357" stroke="#000000" stroke-width="2" stroke-miterlimit="10" points="578.318,100.708 572.355,128.419 
		548.908,131.716 554.871,104.004 	"/>
</g>
<polygon fill="#C54357" stroke="#000000" stroke-width="2" stroke-miterlimit="10" points="547.799,130.977 541.836,158.687 
	560.614,156.049 566.573,128.335 "/>
<g>
	<polygon fill="#20303D" stroke="#000000" stroke-width="2" stroke-linejoin="round" stroke-miterlimit="10" points="
		547.799,130.977 541.836,158.687 518.451,110.072 524.412,82.359 	"/>
</g>
<g>
	<polygon fill="#70B0C8" stroke="#000000" stroke-width="2" stroke-linejoin="round" stroke-miterlimit="10" points="
		567.076,68.452 571.528,77.707 544.078,81.566 549.08,91.967 572.529,88.67 578.318,100.708 554.871,104.004 566.573,128.335 
		547.799,130.977 524.412,82.359 	"/>
</g>
<g>
	<polygon fill="#C54357" stroke="#000000" stroke-width="2" stroke-miterlimit="10" points="520.283,76.532 514.323,104.245 
		495.865,110.263 501.825,82.55 	"/>
</g>
<path fill="#223341" stroke="#000000" stroke-width="2" stroke-linejoin="round" stroke-miterlimit="10" d="M489.76,109.151
	c0.417-0.009,0.832-0.002,1.245,0.023c0.201,0.013,0.399,0.034,0.6,0.054c0.137,0.014,0.272,0.024,0.407,0.042
	c0.182,0.022,0.363,0.053,0.542,0.083c0.164,0.027,0.326,0.053,0.489,0.084c0.159,0.032,0.313,0.069,0.47,0.105
	c0.182,0.041,0.362,0.082,0.542,0.13c0.146,0.038,0.29,0.083,0.434,0.125c0.189,0.056,0.381,0.113,0.569,0.175
	c0.27,0.09,0.538,0.184,0.809,0.29l5.96-27.712c-0.227-0.089-0.452-0.173-0.682-0.251c-0.054-0.018-0.104-0.032-0.16-0.05
	c-0.149-0.05-0.303-0.094-0.452-0.14c-0.182-0.055-0.361-0.11-0.543-0.159c-0.148-0.039-0.298-0.072-0.446-0.107
	c-0.14-0.032-0.276-0.071-0.413-0.099c-0.044-0.008-0.089-0.013-0.132-0.023c-0.175-0.033-0.35-0.06-0.522-0.087
	c-0.156-0.025-0.313-0.054-0.47-0.073c-0.196-0.026-0.396-0.042-0.592-0.061c-0.117-0.011-0.233-0.027-0.352-0.035
	c-0.02-0.001-0.041,0-0.063,0c-0.432-0.028-0.862-0.036-1.297-0.026c-0.104,0.002-0.208,0.008-0.313,0.013
	c-0.362,0.016-0.727,0.043-1.091,0.083c-0.065,0.007-0.131,0.007-0.197,0.015c-0.091,0.012-0.185,0.023-0.276,0.037
	c-1.892,0.265-3.435,0.833-4.635,1.703c-0.178,0.129-0.33,0.279-0.49,0.42c-0.114,0.099-0.237,0.188-0.343,0.293
	c-0.091,0.088-0.163,0.192-0.247,0.286c-0.158,0.178-0.323,0.35-0.464,0.545c-0.003,0.002-0.006,0.006-0.007,0.008
	c-0.201,0.278-0.383,0.574-0.546,0.887c-0.04,0.078-0.07,0.164-0.109,0.244c-0.104,0.22-0.213,0.438-0.302,0.676
	c-0.016,0.05-0.035,0.1-0.051,0.151c-0.079,0.23-0.124,0.497-0.195,0.752l-5.964,27.713c0.069-0.255,0.117-0.522,0.199-0.753
	c0.104-0.305,0.231-0.589,0.369-0.867c0.03-0.063,0.055-0.134,0.087-0.196c0.166-0.319,0.353-0.62,0.558-0.904
	c0.134-0.185,0.292-0.349,0.442-0.52c0.089-0.101,0.169-0.214,0.266-0.31c0.256-0.254,0.534-0.491,0.836-0.708
	c0.894-0.651,1.979-1.132,3.258-1.445c0.009-0.001,0.015-0.004,0.021-0.006c0.428-0.104,0.88-0.189,1.352-0.257
	c0.15-0.02,0.3-0.03,0.445-0.047c0.368-0.042,0.732-0.068,1.098-0.085C489.521,109.161,489.639,109.153,489.76,109.151z"/>
<polygon fill="#263949" points="486.437,87.552 480.473,115.265 495.865,110.263 501.825,82.55 "/>
<g>
	<polygon fill="#263949" stroke="#000000" stroke-width="2" stroke-linejoin="round" stroke-miterlimit="10" points="
		508.868,87.423 502.906,115.136 488.063,119.982 494.028,92.271 	"/>
</g>
<polygon fill="#C54357" stroke="#000000" stroke-width="2" stroke-miterlimit="10" points="467.377,93.773 461.416,121.487 
	480.473,115.265 486.437,87.552 "/>
<path fill="#70B0C8" stroke="#000000" stroke-width="2" stroke-linejoin="round" stroke-miterlimit="10" d="M514.281,72.357
	c-8.025-4.566-17.066-6.135-27.132-4.72c-9.821,1.379-16.182,5.165-19.083,11.356c-1.935,4.139-2.146,9.07-0.689,14.78l19.061-6.221
	c0.071-0.255,0.116-0.521,0.195-0.752c1.025-2.945,3.418-4.684,7.192-5.213c2.763-0.389,5.42-0.048,8,0.963l18.458-6.019
	C518.393,74.955,516.397,73.563,514.281,72.357z"/>
<g enable-background="new    ">
	<g>
		<defs>
			<path id="SVGID_2_" d="M460.889,110.327l5.963-27.713c-0.71,3.307-0.527,7.028,0.524,11.159l-5.961,27.714
				C460.364,117.358,460.181,113.635,460.889,110.327z"/>
		</defs>
		<clipPath id="SVGID_4_">
			<use xlink:href="#SVGID_2_"  overflow="visible"/>
		</clipPath>
		<g clip-path="url(#SVGID_4_)" enable-background="new    ">
			<path fill="#20313E" stroke="#000000" stroke-width="2" stroke-linejoin="round" stroke-miterlimit="10" d="M467.377,93.773
				l-5.961,27.714c-1.053-4.129-1.234-7.854-0.526-11.16l5.963-27.713C466.142,85.921,466.324,89.642,467.377,93.773"/>
		</g>
	</g>
	<g>
		<path id="SVGID_1_" fill="none" stroke="#000000" stroke-width="2" stroke-linejoin="round" stroke-miterlimit="10" d="
			M460.889,110.327l5.963-27.713c-0.71,3.307-0.527,7.028,0.524,11.159l-5.961,27.714
			C460.364,117.358,460.181,113.635,460.889,110.327z"/>
	</g>
</g>
<g>
	<polygon fill="#20313E" stroke="#000000" stroke-width="2" stroke-linejoin="round" stroke-miterlimit="10" points="455.412,91.06 
		449.45,118.772 432.309,122.268 438.269,94.553 	"/>
</g>
<path fill="#223341" stroke="#000000" stroke-width="2" stroke-linejoin="round" stroke-miterlimit="10" d="M429.045,118.537
	c0.188,0.16,0.379,0.3,0.564,0.48c0.32,0.304,0.629,0.657,0.943,1.006c0.142,0.161,0.291,0.304,0.432,0.473
	c0.449,0.546,0.893,1.132,1.324,1.772l5.96-27.715c-0.43-0.635-0.87-1.223-1.319-1.767c-0.154-0.187-0.316-0.343-0.477-0.519
	c-0.297-0.332-0.593-0.67-0.897-0.963c-0.19-0.183-0.395-0.332-0.588-0.5c-0.28-0.241-0.561-0.488-0.849-0.694
	c-0.211-0.152-0.431-0.273-0.648-0.407c-0.229-0.142-0.453-0.309-0.688-0.431c-0.103-0.053-0.204-0.106-0.306-0.156
	c-0.384-0.187-0.775-0.347-1.181-0.488c-0.08-0.027-0.17-0.042-0.248-0.064c-0.174-0.057-0.354-0.099-0.53-0.148
	c-0.194-0.05-0.382-0.119-0.58-0.156c-0.142-0.03-0.296-0.035-0.442-0.063c-0.233-0.037-0.475-0.068-0.716-0.094
	c-0.146-0.016-0.283-0.05-0.434-0.057c-0.247-0.02-0.508-0.012-0.764-0.016c-0.125,0-0.25-0.007-0.38-0.004
	c-0.504,0.008-1.013,0.038-1.537,0.103c-0.091,0.013-0.184,0.024-0.275,0.039c-0.482,0.069-0.92,0.16-1.328,0.267
	c-0.104,0.027-0.208,0.057-0.309,0.085c-0.345,0.102-0.668,0.217-0.95,0.346c-0.045,0.019-0.092,0.035-0.133,0.054
	c-0.255,0.125-0.491,0.262-0.695,0.411c-0.037,0.026-0.054,0.056-0.083,0.083c-0.159,0.122-0.282,0.259-0.405,0.396
	c-0.078,0.084-0.185,0.158-0.247,0.244c-0.037,0.049-0.071,0.1-0.104,0.149c-0.134,0.213-0.241,0.426-0.322,0.647
	c-0.051,0.141-0.092,0.282-0.122,0.426l-5.965,27.713c0.08-0.369,0.229-0.728,0.446-1.07c0.09-0.145,0.232-0.264,0.35-0.397
	c0.126-0.136,0.248-0.278,0.407-0.4c0.229-0.175,0.48-0.341,0.776-0.489c0.046-0.023,0.104-0.038,0.151-0.06
	c0.279-0.127,0.591-0.241,0.926-0.34c0.105-0.03,0.21-0.06,0.324-0.087c0.406-0.106,0.839-0.197,1.317-0.266
	c0.622-0.088,1.227-0.131,1.815-0.142c0.124-0.003,0.248,0.004,0.374,0.004c0.413,0.005,0.814,0.034,1.212,0.072
	c0.235,0.027,0.466,0.057,0.697,0.096c0.354,0.057,0.699,0.134,1.044,0.221c0.171,0.045,0.343,0.086,0.511,0.141
	c0.492,0.157,0.972,0.333,1.436,0.556c0.338,0.165,0.667,0.386,0.997,0.59c0.215,0.133,0.433,0.252,0.643,0.404
	C428.472,118.033,428.758,118.288,429.045,118.537z"/>
<g enable-background="new    ">
	<g>
		<defs>
			<path id="SVGID_6_" d="M507.818,118.243l-5.963,27.715c0.164-0.771,0.205-1.65,0.122-2.645c-0.241-2.791-1.46-6.473-3.662-11.05
				c-2.693-5.602-5.805-9.535-9.354-11.798c-0.3-0.19-0.604-0.316-0.896-0.484l5.965-27.711c0.289,0.168,0.595,0.29,0.894,0.484
				c3.55,2.264,6.664,6.196,9.357,11.794c2.199,4.577,3.42,8.258,3.656,11.052C508.021,116.596,507.984,117.477,507.818,118.243z"/>
		</defs>
		<clipPath id="SVGID_8_">
			<use xlink:href="#SVGID_6_"  overflow="visible"/>
		</clipPath>
		<g clip-path="url(#SVGID_8_)" enable-background="new    ">
			<path fill="#20313E" stroke="#000000" stroke-width="2" stroke-linejoin="round" stroke-miterlimit="10" d="M507.818,118.243
				l-5.963,27.715c0.164-0.771,0.205-1.65,0.122-2.645c-0.241-2.791-1.46-6.473-3.662-11.05c-2.693-5.602-5.805-9.535-9.354-11.798
				c-0.109-0.069-0.22-0.129-0.33-0.187l5.961-27.715c0.111,0.058,0.222,0.119,0.33,0.191c3.55,2.264,6.664,6.196,9.357,11.794
				c2.199,4.577,3.42,8.258,3.656,11.052C508.021,116.596,507.984,117.477,507.818,118.243"/>
			<path fill="#21323F" stroke="#000000" stroke-width="2" stroke-linejoin="round" stroke-miterlimit="10" d="M494.591,92.564
				l-5.961,27.715c-0.131-0.069-0.255-0.13-0.385-0.2l5.964-27.71C494.335,92.435,494.464,92.497,494.591,92.564"/>
			<path fill="#20313E" stroke="#000000" stroke-width="2" stroke-linejoin="round" stroke-miterlimit="10" d="M494.209,92.37
				l-5.964,27.71c-0.06-0.031-0.12-0.064-0.183-0.098l5.965-27.711C494.086,92.305,494.148,92.336,494.209,92.37"/>
		</g>
	</g>
	<g>
		<path id="SVGID_3_" fill="none" stroke="#000000" stroke-width="2" stroke-linejoin="round" stroke-miterlimit="10" d="
			M507.818,118.243l-5.963,27.715c0.164-0.771,0.205-1.65,0.122-2.645c-0.241-2.791-1.46-6.473-3.662-11.05
			c-2.693-5.602-5.805-9.535-9.354-11.798c-0.3-0.19-0.604-0.316-0.896-0.484l5.965-27.711c0.289,0.168,0.595,0.29,0.894,0.484
			c3.55,2.264,6.664,6.196,9.357,11.794c2.199,4.577,3.42,8.258,3.656,11.052C508.021,116.596,507.984,117.477,507.818,118.243z"/>
	</g>
</g>
<g enable-background="new    ">
	<g>
		<defs>
			<path id="SVGID_10_" d="M468.844,136.438c-2.144-4.46-3.212-8.058-3.219-10.833l5.961-27.714
				c0.008,2.775,1.077,6.373,3.22,10.832c2.894,6.014,6.119,10.179,9.651,12.481c2.82,1.838,5.754,2.769,8.808,2.791l-5.961,27.711
				c-3.054-0.021-5.989-0.953-8.81-2.789C474.96,146.617,471.739,142.451,468.844,136.438z"/>
		</defs>
		<clipPath id="SVGID_12_">
			<use xlink:href="#SVGID_10_"  overflow="visible"/>
		</clipPath>
		<g clip-path="url(#SVGID_12_)" enable-background="new    ">
			<path fill="#233543" stroke="#000000" stroke-width="2" stroke-linejoin="round" stroke-miterlimit="10" d="M493.265,123.995
				l-5.961,27.711c-0.305,0-0.611-0.012-0.913-0.033l5.964-27.713C492.658,123.982,492.961,123.995,493.265,123.995"/>
			<path fill="#223442" stroke="#000000" stroke-width="2" stroke-linejoin="round" stroke-miterlimit="10" d="M492.355,123.96
				l-5.964,27.713c-0.683-0.047-1.354-0.137-2.022-0.275l5.96-27.712C491,123.823,491.672,123.915,492.355,123.96"/>
			<path fill="#223341" stroke="#000000" stroke-width="2" stroke-linejoin="round" stroke-miterlimit="10" d="M490.328,123.688
				l-5.96,27.712c-0.651-0.135-1.293-0.311-1.936-0.529l5.965-27.713C489.034,123.377,489.68,123.553,490.328,123.688"/>
			<path fill="#21323F" stroke="#000000" stroke-width="2" stroke-linejoin="round" stroke-miterlimit="10" d="M488.398,123.157
				l-5.965,27.713c-0.786-0.271-1.567-0.609-2.344-1.016l5.964-27.709C486.827,122.548,487.607,122.885,488.398,123.157"/>
			<path fill="#20313E" stroke="#000000" stroke-width="2" stroke-linejoin="round" stroke-miterlimit="10" d="M486.053,122.145
				l-5.964,27.709c-0.534-0.281-1.066-0.592-1.595-0.937c-3.535-2.301-6.757-6.467-9.65-12.479
				c-2.144-4.46-3.212-8.058-3.219-10.833l5.961-27.714c0.008,2.775,1.077,6.373,3.22,10.832c2.894,6.014,6.119,10.179,9.651,12.481
				C484.985,121.549,485.519,121.862,486.053,122.145"/>
		</g>
	</g>
	<g>
		<path id="SVGID_5_" fill="none" stroke="#000000" stroke-width="2" stroke-linejoin="round" stroke-miterlimit="10" d="
			M468.844,136.438c-2.144-4.46-3.212-8.058-3.219-10.833l5.961-27.714c0.008,2.775,1.077,6.373,3.22,10.832
			c2.894,6.014,6.119,10.179,9.651,12.481c2.82,1.838,5.754,2.769,8.808,2.791l-5.961,27.711c-3.054-0.021-5.989-0.953-8.81-2.789
			C474.96,146.617,471.739,142.451,468.844,136.438z"/>
	</g>
</g>
<g>
	<path fill="#70B0C8" stroke="#000000" stroke-width="2" stroke-linejoin="round" stroke-miterlimit="10" d="M422.005,76.772
		c7.734-1.054,14.313-0.434,19.718,1.85c5.42,2.282,9.985,6.47,13.696,12.551l-17.153,3.423c-1.754-2.625-3.668-4.454-5.751-5.465
		c-2.069-1.016-4.435-1.342-7.083-0.981c-2.174,0.295-3.594,0.97-4.264,2.019c-0.676,1.063-0.689,2.244-0.069,3.552
		c0.452,0.948,1.304,1.752,2.58,2.381c1.254,0.661,3.699,1.116,7.321,1.337c7.742,0.537,13.772,1.323,18.104,2.367l-31.011,9.955
		c-0.96-0.377-1.905-0.781-2.752-1.208c-4.95-2.542-8.541-6.136-10.764-10.809c-1.46-3.068-1.938-6.089-1.42-9.063
		c0.501-2.972,2.194-5.483,5.068-7.536C411.109,79.083,415.694,77.628,422.005,76.772z"/>
</g>
<path fill="#20313E" stroke="#000000" stroke-width="2" stroke-linejoin="round" stroke-miterlimit="10" d="M415.409,108.607
	c-0.384-0.192-0.743-0.407-1.114-0.613c-0.271-0.153-0.549-0.3-0.81-0.46c-0.311-0.188-0.601-0.39-0.895-0.587
	c-0.253-0.168-0.509-0.327-0.749-0.502c-0.289-0.207-0.561-0.428-0.835-0.644c-0.229-0.185-0.467-0.354-0.683-0.541
	c-0.272-0.229-0.521-0.474-0.781-0.713c-0.203-0.19-0.419-0.374-0.615-0.571c-0.254-0.257-0.49-0.527-0.729-0.791
	c-0.179-0.198-0.37-0.388-0.542-0.594c-0.24-0.284-0.463-0.59-0.688-0.888c-0.15-0.198-0.31-0.388-0.455-0.593
	c-0.239-0.34-0.463-0.698-0.683-1.056c-0.11-0.176-0.231-0.343-0.335-0.522c-0.322-0.545-0.62-1.105-0.897-1.681
	c-1.474-3.063-1.964-6.083-1.462-9.054c0.032-0.176,0.063-0.346,0.102-0.518l-5.966,27.712c-0.036,0.173-0.067,0.343-0.097,0.52
	c-0.507,2.975-0.014,5.991,1.458,9.051c0.279,0.58,0.576,1.136,0.897,1.682c0.105,0.183,0.229,0.35,0.34,0.525
	c0.222,0.358,0.44,0.713,0.681,1.056c0.145,0.202,0.305,0.393,0.454,0.591c0.227,0.301,0.448,0.602,0.691,0.891
	c0.173,0.203,0.358,0.394,0.542,0.592c0.237,0.268,0.475,0.539,0.727,0.789c0.196,0.197,0.407,0.379,0.612,0.567
	c0.259,0.244,0.512,0.488,0.783,0.72c0.217,0.183,0.449,0.354,0.676,0.529c0.277,0.222,0.551,0.445,0.844,0.657
	c0.24,0.171,0.493,0.331,0.74,0.495c0.298,0.202,0.592,0.403,0.9,0.594c0.263,0.157,0.537,0.306,0.807,0.456
	c0.265,0.15,0.519,0.311,0.793,0.45c0.105,0.058,0.22,0.114,0.326,0.168c0.849,0.427,1.792,0.823,2.755,1.196l5.963-27.714
	C417.201,109.437,416.26,109.034,415.409,108.607z"/>
<g>
	<polygon fill="#C54357" stroke="#000000" stroke-width="2" stroke-miterlimit="10" points="449.129,99.72 443.167,127.436 
		412.202,137.519 418.165,109.805 	"/>
</g>
<path fill="#C54357" stroke="#000000" stroke-width="2" stroke-miterlimit="10" d="M526.658,125.387
	c-0.055,0.143-0.133,0.275-0.188,0.415c-0.236,0.591-0.497,1.166-0.802,1.722c-0.134,0.246-0.295,0.471-0.441,0.705
	c-0.284,0.459-0.572,0.912-0.903,1.343c-0.104,0.137-0.215,0.274-0.325,0.407c-0.479,0.584-0.981,1.147-1.548,1.682
	c-0.47,0.438-0.976,0.849-1.509,1.246c-0.323,0.235-0.66,0.469-1.012,0.69c-0.112,0.072-0.215,0.151-0.329,0.221
	c-0.486,0.301-0.999,0.582-1.532,0.854c-0.123,0.061-0.255,0.117-0.383,0.178c-0.416,0.202-0.846,0.396-1.288,0.58
	c-0.2,0.084-0.409,0.16-0.615,0.24c-0.396,0.152-0.798,0.296-1.209,0.438c-0.233,0.076-0.471,0.152-0.712,0.229
	c-0.416,0.126-0.844,0.247-1.277,0.365c-0.247,0.066-0.491,0.131-0.744,0.195c-0.475,0.114-0.97,0.221-1.468,0.324
	c-0.226,0.045-0.443,0.098-0.678,0.143c-0.734,0.141-1.49,0.266-2.274,0.376c-0.602,0.084-1.191,0.149-1.781,0.213
	c-0.426,0.048-0.851,0.091-1.271,0.13c-0.414,0.039-0.826,0.064-1.237,0.091c-0.409,0.027-0.813,0.054-1.213,0.068
	c-0.408,0.018-0.81,0.03-1.207,0.039c-0.403,0.006-0.802,0.012-1.197,0.006c-0.388,0-0.771-0.011-1.153-0.021
	c-0.398-0.014-0.797-0.029-1.191-0.05c-0.325-0.016-0.646-0.042-0.97-0.067c-0.582-0.047-1.157-0.105-1.729-0.174
	c-0.289-0.033-0.575-0.063-0.858-0.105c-0.618-0.087-1.223-0.193-1.825-0.311c-0.216-0.039-0.44-0.069-0.652-0.117
	c-0.745-0.154-1.479-0.326-2.199-0.526c-0.713-0.192-1.421-0.416-2.121-0.66c-0.121-0.037-0.233-0.086-0.35-0.128
	c-0.679-0.24-1.36-0.502-2.035-0.789c-0.257-0.105-0.513-0.224-0.769-0.34c-0.551-0.246-1.1-0.505-1.644-0.783
	c-0.27-0.134-0.539-0.27-0.807-0.414c-0.386-0.205-0.767-0.42-1.147-0.644c-0.303-0.176-0.606-0.346-0.908-0.529
	c-0.393-0.238-0.784-0.499-1.176-0.754c-0.284-0.188-0.564-0.361-0.849-0.559c-0.436-0.299-0.863-0.615-1.292-0.933
	c-0.237-0.174-0.472-0.338-0.707-0.517c-0.66-0.508-1.319-1.033-1.974-1.59c-5.003-4.236-9.179-9.837-12.528-16.794
	c-1.245-2.59-2.198-5.05-2.901-7.375l-5.96,27.708c0.7,2.331,1.652,4.788,2.902,7.376c3.345,6.961,7.524,12.56,12.525,16.798
	c0.656,0.555,1.316,1.087,1.981,1.596c0.201,0.156,0.408,0.298,0.611,0.445c0.461,0.348,0.929,0.69,1.398,1.01
	c0.243,0.167,0.488,0.325,0.734,0.483c0.431,0.287,0.868,0.568,1.302,0.836c0.263,0.158,0.524,0.308,0.786,0.461
	c0.424,0.242,0.849,0.486,1.277,0.715c0.098,0.054,0.193,0.111,0.292,0.165c0.136,0.073,0.275,0.126,0.417,0.196
	c0.582,0.299,1.165,0.576,1.758,0.84c0.224,0.103,0.449,0.207,0.679,0.3c0.694,0.294,1.393,0.569,2.095,0.817
	c0.084,0.028,0.171,0.068,0.255,0.098c0.021,0.004,0.041,0.012,0.061,0.02c0.705,0.239,1.413,0.461,2.128,0.654
	c0.729,0.198,1.468,0.374,2.217,0.532c0.034,0.006,0.07,0.018,0.106,0.024c0.15,0.03,0.311,0.051,0.463,0.076
	c0.622,0.123,1.25,0.23,1.89,0.32c0.29,0.042,0.586,0.076,0.882,0.109c0.552,0.066,1.105,0.123,1.667,0.168
	c0.18,0.017,0.349,0.043,0.527,0.053c0.171,0.013,0.353,0.013,0.523,0.02c0.372,0.022,0.748,0.034,1.125,0.047
	c0.394,0.015,0.787,0.022,1.188,0.022c0.396,0.003,0.793,0,1.195-0.008c0.392-0.007,0.791-0.019,1.189-0.034
	c0.41-0.02,0.824-0.042,1.234-0.073c0.409-0.026,0.813-0.053,1.224-0.09c0.419-0.034,0.843-0.081,1.27-0.125
	c0.238-0.026,0.475-0.042,0.716-0.074c0.354-0.046,0.712-0.091,1.074-0.14c0.78-0.11,1.532-0.242,2.268-0.376
	c0.238-0.047,0.468-0.101,0.7-0.147c0.489-0.102,0.975-0.205,1.443-0.324c0.258-0.06,0.512-0.127,0.765-0.197
	c0.424-0.114,0.842-0.232,1.248-0.357c0.248-0.076,0.499-0.156,0.738-0.236c0.399-0.135,0.79-0.279,1.17-0.422
	c0.219-0.084,0.438-0.168,0.65-0.256c0.427-0.177,0.837-0.363,1.239-0.558c0.144-0.067,0.292-0.134,0.434-0.202
	c0.528-0.268,1.035-0.55,1.521-0.845c0.116-0.074,0.221-0.154,0.338-0.226c0.295-0.189,0.597-0.381,0.875-0.582
	c0.048-0.035,0.084-0.074,0.132-0.106c0.534-0.397,1.042-0.81,1.506-1.246c0.564-0.531,1.068-1.097,1.541-1.674
	c0.116-0.138,0.229-0.278,0.34-0.419c0.095-0.123,0.201-0.24,0.295-0.365c0.221-0.309,0.399-0.643,0.6-0.965
	c0.149-0.236,0.311-0.469,0.445-0.71c0.304-0.552,0.56-1.126,0.796-1.708c0.062-0.149,0.139-0.283,0.192-0.436
	c0.008-0.016,0.016-0.031,0.021-0.046c0.281-0.755,0.508-1.541,0.682-2.356l5.961-27.711
	C527.183,123.811,526.946,124.613,526.658,125.387z"/>
<g>
	<path fill="#70B0C8" stroke="#000000" stroke-width="2" stroke-linejoin="round" stroke-miterlimit="10" d="M511.727,86.488
		c4.521,4.137,8.317,9.35,11.368,15.691c3.347,6.958,4.92,12.834,4.678,17.627c-0.247,4.782-2.01,8.738-5.323,11.852
		c-3.306,3.108-8.313,5.137-15.03,6.077c-6.828,0.961-12.982,0.687-18.486-0.823c-5.504-1.507-10.766-4.389-15.775-8.639
		c-5.003-4.236-9.179-9.837-12.528-16.794c-1.245-2.59-2.198-5.05-2.901-7.375l18.41-6.016c0.01,2.775,1.102,6.383,3.237,10.833
		c2.894,6.013,6.103,10.179,9.645,12.493c3.529,2.305,7.247,3.188,11.153,2.634c4.021-0.563,6.506-2.289,7.472-5.173
		c0.306-0.904,0.405-1.998,0.292-3.274c-0.236-2.794-1.457-6.475-3.655-11.052c-2.694-5.598-5.81-9.531-9.358-11.794
		c-0.299-0.194-0.604-0.316-0.894-0.484l14.841-4.848L511.727,86.488z"/>
</g>
<path fill="#223341" stroke="#000000" stroke-width="2" stroke-linejoin="round" stroke-miterlimit="10" d="M444.598,127.143
	c-0.528-1.094-1.378-2.054-2.521-2.889c-0.066-0.045-0.114-0.099-0.182-0.145c-0.114-0.08-0.257-0.148-0.378-0.229
	c-0.313-0.198-0.626-0.399-0.981-0.585c-0.007,0-0.007,0-0.009,0c-0.323-0.172-0.718-0.333-1.144-0.485
	c-0.052-0.019-0.086-0.038-0.144-0.057c-0.076-0.027-0.173-0.048-0.254-0.076c-0.188-0.061-0.389-0.122-0.594-0.18
	c-0.179-0.053-0.366-0.103-0.563-0.151c-0.216-0.054-0.447-0.107-0.683-0.158c-0.125-0.031-0.233-0.06-0.364-0.086
	c-0.08-0.015-0.179-0.03-0.263-0.047c-0.272-0.053-0.563-0.106-0.859-0.156c-0.223-0.037-0.439-0.077-0.675-0.11
	c-0.32-0.049-0.666-0.095-1.013-0.14c-0.231-0.031-0.458-0.066-0.699-0.092c-0.397-0.05-0.826-0.092-1.255-0.133
	c-0.219-0.023-0.422-0.045-0.645-0.07c-0.665-0.06-1.356-0.114-2.084-0.162c-1.351-0.102-2.634-0.229-3.895-0.368
	c-0.31-0.037-0.618-0.073-0.923-0.111c-1.226-0.148-2.419-0.313-3.551-0.502c-0.099-0.019-0.188-0.039-0.286-0.053
	c-1.042-0.183-2.034-0.385-3.003-0.599c-0.28-0.063-0.561-0.123-0.835-0.188c-1.034-0.249-2.041-0.508-2.982-0.792l-5.963,27.71
	c0.94,0.287,1.946,0.543,2.981,0.792c0.273,0.064,0.559,0.13,0.841,0.191c0.313,0.068,0.606,0.146,0.927,0.213
	c0.675,0.139,1.377,0.263,2.087,0.386c0.089,0.019,0.175,0.035,0.266,0.051c1.145,0.193,2.349,0.361,3.583,0.511
	c0.287,0.033,0.575,0.067,0.863,0.104c1.271,0.14,2.566,0.271,3.928,0.369c0.725,0.049,1.419,0.103,2.082,0.162
	c0.225,0.022,0.432,0.047,0.646,0.07c0.43,0.041,0.858,0.084,1.256,0.133c0.244,0.025,0.468,0.063,0.7,0.09
	c0.345,0.047,0.688,0.093,1.01,0.143c0.231,0.034,0.454,0.072,0.676,0.111c0.294,0.048,0.586,0.102,0.861,0.154
	c0.213,0.043,0.413,0.088,0.616,0.129c0.245,0.055,0.484,0.111,0.71,0.168c0.185,0.045,0.355,0.092,0.525,0.141
	c0.217,0.059,0.419,0.119,0.614,0.184c0.137,0.045,0.268,0.088,0.393,0.133c0.426,0.156,0.82,0.313,1.147,0.485
	c0.829,0.427,1.526,0.914,2.139,1.439c0.112,0.1,0.252,0.187,0.356,0.292c0.095,0.086,0.162,0.186,0.25,0.281
	c0.546,0.566,1.002,1.174,1.32,1.836c0.529,1.099,0.687,2.153,0.467,3.162l5.965-27.712
	C445.285,129.295,445.124,128.239,444.598,127.143z"/>
<g>
	<polygon fill="#20303D" stroke="#000000" stroke-width="2" stroke-linejoin="round" stroke-miterlimit="10" points="
		383.53,121.107 377.565,148.819 360.526,113.396 366.489,85.684 	"/>
</g>
<g>
	<polygon fill="#C54357" stroke="#000000" stroke-width="2" stroke-miterlimit="10" points="400.8,115.412 394.835,143.122 
		377.565,148.819 383.53,121.107 	"/>
</g>
<g>
	<polygon fill="#70B0C8" stroke="#000000" stroke-width="2" stroke-linejoin="round" stroke-miterlimit="10" points="
		385.231,83.047 400.8,115.412 383.53,121.107 366.489,85.684 	"/>
</g>
<path fill="#C54357" stroke="#000000" stroke-width="2" stroke-miterlimit="10" d="M460.645,135.033
	c-0.069,0.17-0.148,0.336-0.229,0.51c-0.238,0.517-0.509,1.021-0.814,1.5c-0.086,0.138-0.164,0.278-0.26,0.416
	c-0.313,0.453-0.682,0.876-1.061,1.292c-0.152,0.171-0.284,0.359-0.447,0.523c-0.567,0.563-1.188,1.101-1.878,1.599
	c-3.04,2.203-7.488,3.724-13.354,4.547c-1.125,0.16-2.211,0.272-3.283,0.378c-0.2,0.018-0.402,0.045-0.6,0.059
	c-1.095,0.097-2.157,0.153-3.193,0.188c-0.27,0.009-0.524,0.003-0.791,0.009c-0.77,0.01-1.521,0.006-2.26-0.012
	c-0.322-0.013-0.646-0.023-0.963-0.04c-0.674-0.033-1.335-0.091-1.98-0.155c-0.31-0.031-0.623-0.054-0.929-0.091
	c-0.918-0.116-1.813-0.251-2.669-0.425c-1.128-0.234-2.188-0.535-3.213-0.874c-0.294-0.095-0.571-0.207-0.857-0.313
	c-0.774-0.285-1.518-0.606-2.23-0.955c-0.415-0.203-0.843-0.391-1.237-0.614c-5.831-3.347-10.452-7.988-13.867-13.926l-5.964,27.712
	c3.415,5.938,8.036,10.58,13.869,13.926c0.231,0.133,0.467,0.262,0.708,0.389c0.158,0.08,0.341,0.135,0.503,0.213
	c0.728,0.358,1.485,0.682,2.273,0.976c0.175,0.065,0.326,0.151,0.503,0.213c0.104,0.039,0.227,0.058,0.329,0.091
	c1.025,0.34,2.085,0.641,3.211,0.873c0.007,0,0.012,0,0.019,0.005c0.856,0.174,1.748,0.312,2.663,0.425
	c0.292,0.037,0.599,0.057,0.893,0.09c0.446,0.041,0.878,0.098,1.335,0.129c0.231,0.016,0.474,0.016,0.707,0.026
	c0.306,0.021,0.611,0.027,0.92,0.038c0.735,0.023,1.491,0.027,2.261,0.012c0.271-0.002,0.542,0,0.815-0.007
	c1.027-0.034,2.077-0.092,3.155-0.183c0.242-0.02,0.499-0.053,0.744-0.077c0.617-0.062,1.228-0.114,1.863-0.19
	c0.432-0.055,0.864-0.109,1.303-0.172c5.869-0.826,10.317-2.347,13.355-4.55c0.014-0.012,0.027-0.019,0.042-0.03
	c0.674-0.488,1.28-1.015,1.835-1.57c0.169-0.168,0.299-0.354,0.457-0.528c0.315-0.347,0.645-0.69,0.915-1.063
	c0.055-0.073,0.091-0.148,0.139-0.224c0.094-0.132,0.174-0.276,0.261-0.415c0.306-0.482,0.578-0.982,0.815-1.502
	c0.075-0.17,0.156-0.333,0.227-0.504c0.044-0.111,0.104-0.214,0.144-0.325c0.212-0.575,0.387-1.169,0.518-1.786l5.963-27.713
	C461.147,133.66,460.915,134.356,460.645,135.033z"/>
<g>
	<path fill="#70B0C8" stroke="#000000" stroke-width="2" stroke-linejoin="round" stroke-miterlimit="10" d="M443.099,107.622
		c3.903,1.256,7.186,2.959,9.829,5.156c2.864,2.4,5.077,5.228,6.645,8.479c1.83,3.816,2.466,7.49,1.859,11.011
		c-0.588,3.533-2.422,6.399-5.477,8.604c-3.04,2.203-7.488,3.723-13.354,4.547c-10.295,1.447-18.361,0.495-24.207-2.846
		c-5.831-3.348-10.452-7.988-13.867-13.927l17.246-3.604c1.764,2.796,3.588,4.85,5.485,6.182c3.09,2.146,6.426,2.948,9.986,2.445
		c2.679-0.376,4.448-1.273,5.29-2.713c0.861-1.432,0.891-2.968,0.11-4.591c-0.744-1.544-2.096-2.835-4.068-3.854
		c-1.958-1.021-5.698-1.725-11.235-2.104c-6.093-0.441-11.246-1.324-15.475-2.613L443.099,107.622z"/>
</g>
<g>
	<polygon fill="#263949" stroke="#000000" stroke-width="2" stroke-linejoin="round" stroke-miterlimit="10" points="
		391.47,127.645 385.509,155.36 375.635,158.582 381.6,130.871 	"/>
</g>
<g enable-background="new    ">
	<g>
		<defs>
			<path id="SVGID_14_" d="M370.967,141.38l-5.961,27.712c-0.163-0.163-0.321-0.335-0.479-0.514
				c-0.772-0.89-1.602-2.171-2.515-3.819l5.963-27.714c0.912,1.647,1.74,2.933,2.518,3.821
				C370.645,141.046,370.804,141.212,370.967,141.38z"/>
		</defs>
		<clipPath id="SVGID_15_">
			<use xlink:href="#SVGID_14_"  overflow="visible"/>
		</clipPath>
		<g clip-path="url(#SVGID_15_)" enable-background="new    ">
			<path fill="#20313E" stroke="#000000" stroke-width="2" stroke-linejoin="round" stroke-miterlimit="10" d="M370.967,141.38
				l-5.961,27.712c-0.163-0.163-0.321-0.335-0.479-0.514c-0.772-0.89-1.602-2.171-2.515-3.819l5.963-27.714
				c0.912,1.647,1.74,2.933,2.518,3.821C370.645,141.046,370.804,141.212,370.967,141.38"/>
		</g>
	</g>
	<g>
		<path id="SVGID_7_" fill="none" stroke="#000000" stroke-width="2" stroke-linejoin="round" stroke-miterlimit="10" d="
			M370.967,141.38l-5.961,27.712c-0.163-0.163-0.321-0.335-0.479-0.514c-0.772-0.89-1.602-2.171-2.515-3.819l5.963-27.714
			c0.912,1.647,1.74,2.933,2.518,3.821C370.645,141.046,370.804,141.212,370.967,141.38z"/>
	</g>
</g>
<g enable-background="new    ">
	<g>
		<defs>
			<path id="SVGID_16_" d="M371.23,150.552l-5.961,27.715c0.021-0.097,0.037-0.19,0.049-0.293c0.239-1.603-0.462-4.15-2.1-7.594
				l5.963-27.711c1.639,3.441,2.341,5.987,2.099,7.592C371.267,150.358,371.25,150.458,371.23,150.552z"/>
		</defs>
		<clipPath id="SVGID_17_">
			<use xlink:href="#SVGID_16_"  overflow="visible"/>
		</clipPath>
		<g clip-path="url(#SVGID_17_)" enable-background="new    ">
			<path fill="#20313E" stroke="#000000" stroke-width="2" stroke-linejoin="round" stroke-miterlimit="10" d="M371.23,150.552
				l-5.961,27.715c0.021-0.097,0.037-0.19,0.049-0.293c0.239-1.603-0.462-4.15-2.1-7.594l5.963-27.711
				c1.639,3.441,2.341,5.987,2.099,7.592C371.267,150.358,371.25,150.458,371.23,150.552"/>
		</g>
	</g>
	<g>
		<path id="SVGID_9_" fill="none" stroke="#000000" stroke-width="2" stroke-linejoin="round" stroke-miterlimit="10" d="
			M371.23,150.552l-5.961,27.715c0.021-0.097,0.037-0.19,0.049-0.293c0.239-1.603-0.462-4.15-2.1-7.594l5.963-27.711
			c1.639,3.441,2.341,5.987,2.099,7.592C371.267,150.358,371.25,150.458,371.23,150.552z"/>
	</g>
</g>
<path fill="#C54357" stroke="#000000" stroke-width="2" stroke-miterlimit="10" d="M399.774,144.024
	c-0.111,0.533-0.268,1.052-0.454,1.566c-0.06,0.164-0.143,0.328-0.212,0.491c-0.146,0.354-0.296,0.706-0.479,1.053
	c-0.098,0.194-0.225,0.384-0.336,0.575c-0.18,0.309-0.363,0.613-0.574,0.916c-0.261,0.373-0.531,0.746-0.838,1.112
	c-0.318,0.374-0.663,0.733-1.035,1.075c-0.128,0.117-0.277,0.225-0.416,0.34c-0.248,0.212-0.489,0.426-0.762,0.623
	c-0.035,0.027-0.074,0.047-0.108,0.074c-0.528,0.377-1.108,0.724-1.718,1.047c-0.167,0.088-0.332,0.176-0.502,0.261
	c-0.667,0.327-1.358,0.636-2.114,0.905c-0.014,0.004-0.035,0.012-0.051,0.017c-0.745,0.262-1.547,0.487-2.379,0.692
	c-0.211,0.053-0.424,0.104-0.644,0.153c-0.867,0.193-1.768,0.373-2.729,0.507c-0.875,0.125-1.684,0.178-2.52,0.262
	c-0.854,0.084-1.711,0.164-2.521,0.205c-0.633,0.031-1.237,0.031-1.845,0.035c-0.765,0.008-1.521,0.008-2.245-0.026
	c-0.983-0.05-1.954-0.11-2.863-0.236c-0.102-0.016-0.192-0.034-0.291-0.051c-1.08-0.159-2.118-0.365-3.091-0.636
	c-0.898-0.252-1.766-0.561-2.626-0.892c-0.21-0.079-0.423-0.157-0.632-0.245c-0.851-0.35-1.685-0.734-2.495-1.166
	c-0.646-0.343-1.265-0.738-1.886-1.132c-0.302-0.194-0.619-0.358-0.918-0.563c-0.911-0.625-1.796-1.3-2.652-2.039
	c-2.737-2.353-5.193-5.316-7.395-8.808l-5.962,27.715c2.2,3.488,4.657,6.453,7.393,8.806c0.858,0.737,1.744,1.417,2.654,2.043
	c0.289,0.196,0.596,0.358,0.89,0.54c0.632,0.4,1.259,0.804,1.914,1.15c0.046,0.022,0.091,0.058,0.141,0.084
	c0.766,0.398,1.553,0.754,2.354,1.084c0.209,0.082,0.417,0.162,0.626,0.242c0.323,0.125,0.646,0.262,0.975,0.377
	c0.546,0.186,1.099,0.358,1.657,0.515c0.521,0.144,1.061,0.274,1.61,0.389c0.474,0.095,0.965,0.17,1.46,0.243
	c0.108,0.016,0.212,0.038,0.319,0.054c0.71,0.099,1.438,0.175,2.191,0.228c0.214,0.016,0.456-0.004,0.674,0.008
	c0.719,0.037,1.472,0.037,2.229,0.027c0.611-0.004,1.219-0.004,1.854-0.035c0.791-0.037,1.626-0.121,2.459-0.2
	c0.499-0.047,0.956-0.06,1.47-0.119c0.365-0.046,0.734-0.095,1.105-0.147c0.957-0.135,1.85-0.31,2.715-0.506
	c0.229-0.047,0.453-0.101,0.676-0.158c0.811-0.199,1.592-0.42,2.322-0.679c0.032-0.008,0.063-0.02,0.097-0.03
	c0.752-0.267,1.438-0.576,2.104-0.899c0.172-0.088,0.338-0.175,0.506-0.263c0.616-0.328,1.203-0.68,1.736-1.063
	c0.021-0.011,0.046-0.023,0.065-0.039c0.007-0.004,0.011-0.012,0.018-0.016c0.306-0.221,0.582-0.461,0.857-0.701
	c0.106-0.091,0.226-0.172,0.325-0.268c0.371-0.338,0.718-0.696,1.034-1.074c0.25-0.299,0.482-0.6,0.706-0.904
	c0.049-0.068,0.084-0.141,0.134-0.213c0.208-0.294,0.39-0.598,0.566-0.898c0.115-0.199,0.244-0.395,0.348-0.591
	c0.183-0.347,0.331-0.705,0.478-1.059c0.059-0.144,0.137-0.276,0.189-0.412c0.008-0.022,0.011-0.046,0.017-0.065
	c0.188-0.514,0.346-1.035,0.457-1.57L399.774,144.024z"/>
<g>
	<path fill="#70B0C8" stroke="#000000" stroke-width="2" stroke-linejoin="round" stroke-miterlimit="10" d="M395.083,125.583
		c2.776,5.991,4.395,10.689,4.847,14.105c0.484,3.719-0.541,7.063-3.048,10.047c-2.529,2.977-6.669,4.885-12.456,5.695
		c-6.113,0.859-11.227,0.707-15.374-0.447c-4.136-1.158-7.874-3.158-11.209-6.036c-2.737-2.353-5.193-5.316-7.394-8.808
		l16.304-5.312c0.898,1.649,1.74,2.935,2.518,3.819c1.034,1.205,2.281,2.132,3.707,2.776c0.964,0.408,2.102,0.521,3.423,0.334
		c2.093-0.293,3.263-1.276,3.488-2.942c0.241-1.603-0.459-4.147-2.101-7.589l2.053-0.668l9.871-3.225L395.083,125.583z"/>
</g>
<g>
	<polygon fill="#C54357" stroke="#000000" stroke-width="2" stroke-miterlimit="10" points="328.916,138.896 322.953,166.612 
		302.281,173.353 308.242,145.64 	"/>
</g>
<g>
	<polygon fill="#20303D" stroke="#000000" stroke-width="2" stroke-linejoin="round" stroke-miterlimit="10" points="
		308.242,145.64 302.281,173.353 278.952,124.859 284.914,97.149 	"/>
</g>
<g>
	<polygon fill="#70B0C8" stroke="#000000" stroke-width="2" stroke-linejoin="round" stroke-miterlimit="10" points="
		304.326,92.916 327.068,139.704 330.957,139.163 309.19,146.188 284.628,95.655 	"/>
</g>
<polygon fill="#263948" stroke="#000000" stroke-width="2" stroke-linejoin="round" stroke-miterlimit="10" points="
	268.915,121.949 262.953,149.666 277.722,143.735 283.684,116.02 "/>
<path fill="#223341" stroke="#000000" stroke-width="2" stroke-linejoin="round" stroke-miterlimit="10" d="M265.168,118.225
	c-0.413-0.304-0.829-0.583-1.249-0.843c-0.129-0.079-0.261-0.148-0.39-0.225c-0.249-0.145-0.491-0.294-0.741-0.423
	c-0.032-0.019-0.065-0.026-0.098-0.042c-0.641-0.331-1.291-0.605-1.953-0.845c-0.063-0.022-0.125-0.058-0.19-0.081
	c-0.258-0.091-0.518-0.171-0.778-0.247c-0.38-0.111-0.763-0.209-1.145-0.286c-0.039-0.008-0.08-0.008-0.119-0.015
	c-0.533-0.106-1.067-0.183-1.602-0.221c-0.019,0-0.035-0.003-0.055-0.008c-0.422-0.026-0.843-0.034-1.264-0.019
	c-0.112,0.004-0.225,0.019-0.336,0.023c-0.29,0.018-0.578,0.03-0.867,0.069c-0.077,0.007-0.151,0.018-0.229,0.027
	c-0.489,0.069-0.949,0.159-1.39,0.27c-0.149,0.038-0.284,0.088-0.43,0.13c-0.279,0.081-0.559,0.163-0.817,0.262
	c-0.157,0.062-0.302,0.133-0.452,0.2c-0.225,0.098-0.446,0.202-0.653,0.315c-0.146,0.08-0.279,0.166-0.415,0.256
	c-0.119,0.075-0.249,0.14-0.359,0.22c-0.068,0.051-0.126,0.111-0.19,0.165c-0.125,0.099-0.244,0.201-0.36,0.305
	c-0.163,0.145-0.318,0.3-0.463,0.46c-0.105,0.115-0.208,0.233-0.306,0.354c-0.055,0.073-0.119,0.13-0.171,0.203
	c-0.038,0.054-0.058,0.123-0.094,0.176c-0.313,0.464-0.591,0.956-0.796,1.51c-0.002,0.003-0.005,0.007-0.007,0.016
	c-0.139,0.374-0.252,0.766-0.341,1.182l-5.962,27.712c0.09-0.419,0.207-0.82,0.347-1.197c0.207-0.552,0.484-1.049,0.799-1.509
	c0.085-0.127,0.168-0.256,0.262-0.373c0.099-0.126,0.204-0.249,0.313-0.367c0.141-0.155,0.291-0.304,0.449-0.446
	c0.119-0.111,0.241-0.218,0.369-0.315c0.175-0.138,0.36-0.265,0.553-0.386c0.134-0.082,0.266-0.17,0.408-0.25
	c0.213-0.117,0.441-0.219,0.673-0.324c0.143-0.064,0.281-0.133,0.432-0.189c0.269-0.104,0.557-0.188,0.848-0.271
	c0.137-0.041,0.262-0.089,0.401-0.122c0.442-0.111,0.904-0.203,1.394-0.271c0.377-0.053,0.753-0.076,1.13-0.1
	c0.101-0.004,0.203-0.018,0.303-0.023c0.434-0.011,0.869,0,1.304,0.031c0.538,0.033,1.078,0.114,1.616,0.217
	c0.421,0.084,0.843,0.18,1.263,0.307c0.328,0.091,0.646,0.207,0.966,0.326c0.663,0.236,1.314,0.516,1.957,0.842
	c0.281,0.146,0.56,0.306,0.838,0.47c0.13,0.077,0.26,0.146,0.39,0.22c0.42,0.264,0.837,0.542,1.25,0.842
	c1.045,0.764,2.286,2,3.746,3.732l5.962-27.717C267.456,120.223,266.214,118.981,265.168,118.225z"/>
<g enable-background="new    ">
	<g>
		<defs>
			<path id="SVGID_18_" d="M276.922,143.812l-5.962,27.717c0.448-2.076,0.267-4.706-0.537-7.896l5.963-27.713
				C277.189,139.104,277.37,141.733,276.922,143.812z"/>
		</defs>
		<clipPath id="SVGID_19_">
			<use xlink:href="#SVGID_18_"  overflow="visible"/>
		</clipPath>
		<g clip-path="url(#SVGID_19_)" enable-background="new    ">
			<path fill="#20313E" stroke="#000000" stroke-width="2" stroke-linejoin="round" stroke-miterlimit="10" d="M276.922,143.812
				l-5.962,27.717c0.448-2.076,0.267-4.706-0.537-7.896l5.963-27.713C277.189,139.104,277.37,141.733,276.922,143.812"/>
		</g>
	</g>
	<g>
		<path id="SVGID_11_" fill="none" stroke="#000000" stroke-width="2" stroke-linejoin="round" stroke-miterlimit="10" d="
			M276.922,143.812l-5.962,27.717c0.448-2.076,0.267-4.706-0.537-7.896l5.963-27.713
			C277.189,139.104,277.37,141.733,276.922,143.812z"/>
	</g>
</g>
<g enable-background="new    ">
	<g>
		<defs>
			<path id="SVGID_20_" d="M295.531,149.644l-5.961,27.711c-0.012,0.05-0.023,0.104-0.034,0.153l5.962-27.714
				C295.51,149.741,295.522,149.692,295.531,149.644z"/>
		</defs>
		<clipPath id="SVGID_21_">
			<use xlink:href="#SVGID_20_"  overflow="visible"/>
		</clipPath>
		<g clip-path="url(#SVGID_21_)" enable-background="new    ">
			<path fill="#223341" stroke="#000000" stroke-width="2" stroke-linejoin="round" stroke-miterlimit="10" d="M295.531,149.644
				l-5.961,27.711c-0.012,0.05-0.023,0.104-0.034,0.153l5.962-27.714C295.51,149.741,295.522,149.692,295.531,149.644"/>
		</g>
	</g>
	<g>
		<path id="SVGID_13_" fill="none" stroke="#000000" stroke-width="2" stroke-linejoin="round" stroke-miterlimit="10" d="
			M295.531,149.644l-5.961,27.711c-0.012,0.05-0.023,0.104-0.034,0.153l5.962-27.714
			C295.51,149.741,295.522,149.692,295.531,149.644z"/>
	</g>
</g>
<g>
	<polygon fill="#20303D" stroke="#000000" stroke-width="2" stroke-linejoin="round" stroke-miterlimit="10" points="308,163.767 
		302.037,191.478 297.491,182.026 303.451,154.313 	"/>
</g>
<g>
	<polygon fill="#70B0C8" stroke="#000000" stroke-width="2" stroke-linejoin="round" stroke-miterlimit="10" points="
		348.841,142.372 355.894,157.036 308,163.767 303.451,154.313 333.48,144.532 	"/>
</g>
<polygon fill="#C54357" stroke="#000000" stroke-width="2" stroke-miterlimit="10" points="308,163.767 302.037,191.478 
	349.933,184.748 355.894,157.036 "/>
<g>
	<polygon fill="#C54357" stroke="#000000" stroke-width="2" stroke-miterlimit="10" points="295.498,149.793 289.536,177.508 
		252.559,189.563 258.524,161.853 	"/>
</g>
<path fill="#20313E" stroke="#000000" stroke-width="2" stroke-linejoin="round" stroke-miterlimit="10" d="M257.443,161.476
	c-0.605-0.218-1.212-0.453-1.823-0.709c-0.132-0.057-0.263-0.105-0.396-0.162c-0.721-0.318-1.445-0.668-2.173-1.043
	c-0.23-0.123-0.465-0.246-0.697-0.373c-0.401-0.219-0.804-0.442-1.206-0.678c-0.258-0.15-0.516-0.306-0.772-0.462
	c-0.396-0.239-0.788-0.491-1.184-0.75c-0.26-0.169-0.517-0.335-0.775-0.512c-0.421-0.285-0.844-0.585-1.266-0.892
	c-0.229-0.166-0.452-0.32-0.68-0.491c-0.646-0.479-1.295-0.979-1.943-1.511c-5.303-4.308-9.738-10.158-13.298-17.555
	c-3.897-8.106-5.25-14.916-4.062-20.442c-1.988,9.24-3.975,18.475-5.963,27.713c-1.189,5.525,0.166,12.339,4.062,20.441
	c3.561,7.397,7.994,13.246,13.298,17.561c0.654,0.529,1.309,1.033,1.959,1.521c0.201,0.148,0.4,0.288,0.603,0.434
	c0.451,0.328,0.904,0.647,1.354,0.953c0.237,0.158,0.473,0.313,0.706,0.463c0.419,0.275,0.836,0.543,1.254,0.795
	c0.241,0.146,0.484,0.296,0.728,0.436c0.416,0.242,0.83,0.475,1.243,0.693c0.16,0.09,0.322,0.188,0.482,0.271l0.001-0.009
	c0.001,0,0.001,0,0.001,0l-0.002,0.009c0.062,0.034,0.123,0.057,0.184,0.088c0.732,0.381,1.463,0.729,2.19,1.051
	c0.126,0.053,0.251,0.1,0.376,0.152c0.618,0.262,1.231,0.504,1.848,0.719c0.105,0.039,0.214,0.09,0.319,0.127
	c0.251,0.084,0.501,0.168,0.75,0.246l5.965-27.711C258.163,161.737,257.803,161.604,257.443,161.476z"/>
<g>
	<path fill="#70B0C8" stroke="#000000" stroke-width="2" stroke-linejoin="round" stroke-miterlimit="10" d="M247.07,101.376
		c7.614-1.067,14.342-0.394,20.167,2.03c5.822,2.423,11.297,6.624,16.447,12.614l-14.769,5.928
		c-1.459-1.726-2.702-2.967-3.748-3.724c-1.722-1.263-3.518-2.167-5.399-2.707c-1.872-0.553-3.752-0.69-5.615-0.43
		c-4.249,0.596-6.678,2.727-7.319,6.399c-0.519,2.729,0.513,6.762,3.079,12.096c3.179,6.608,6.366,10.983,9.588,13.151
		c3.202,2.158,6.667,2.98,10.345,2.461c3.579-0.502,5.816-1.866,6.696-4.104c0.878-2.238,0.823-5.29-0.156-9.174l18.718,2.568
		c1.006,4.345,1.116,8.091,0.396,11.307l-36.976,12.059c-4.569-1.446-9.246-4.097-13.998-7.957
		c-5.303-4.309-9.738-10.158-13.298-17.556c-4.738-9.852-5.716-17.796-2.938-23.84C231.072,106.453,237.33,102.749,247.07,101.376z"
		/>
</g>
<path fill="#C54357" stroke="#000000" stroke-width="2" stroke-miterlimit="10" d="M286.906,162.409
	c-0.107,0.201-0.243,0.381-0.357,0.572c-0.236,0.41-0.472,0.814-0.747,1.19c-0.286,0.392-0.612,0.748-0.938,1.106
	c-0.158,0.176-0.294,0.365-0.46,0.537c-0.517,0.514-1.074,0.994-1.684,1.444c-0.201,0.148-0.423,0.284-0.636,0.427
	c-0.166,0.105-0.321,0.221-0.494,0.324c-0.24,0.145-0.499,0.277-0.754,0.415c-0.157,0.084-0.305,0.171-0.468,0.255
	c-0.285,0.142-0.589,0.275-0.893,0.409c-0.151,0.064-0.294,0.136-0.448,0.201c-0.326,0.136-0.675,0.258-1.021,0.384
	c-0.152,0.059-0.295,0.114-0.451,0.168c-0.355,0.121-0.737,0.236-1.113,0.348c-0.163,0.05-0.314,0.103-0.481,0.148
	c-0.378,0.107-0.777,0.202-1.175,0.295c-0.184,0.047-0.356,0.096-0.543,0.139c-0.39,0.092-0.804,0.17-1.213,0.248
	c-0.211,0.043-0.414,0.088-0.63,0.131c-0.634,0.115-1.289,0.217-1.962,0.313c-1.376,0.192-2.711,0.325-4.018,0.418
	c-0.221,0.016-0.438,0.023-0.655,0.034c-1.229,0.073-2.438,0.11-3.607,0.097c-0.014-0.005-0.028,0-0.041,0
	c-1.129-0.021-2.218-0.102-3.294-0.199c-0.307-0.027-0.615-0.055-0.917-0.09c-1.095-0.127-2.17-0.276-3.209-0.485l-5.962,27.711
	c1.041,0.21,2.119,0.362,3.216,0.489c0.3,0.033,0.605,0.06,0.911,0.086c0.344,0.035,0.679,0.082,1.026,0.104
	c0.745,0.049,1.502,0.084,2.271,0.096c0.004,0,0.009,0,0.014,0c1.182,0.019,2.4-0.023,3.643-0.096
	c0.211-0.01,0.421-0.02,0.634-0.035c0.971-0.068,1.953-0.154,2.963-0.277c0.352-0.043,0.705-0.09,1.061-0.142
	c0.677-0.093,1.33-0.198,1.966-0.313c0.221-0.041,0.427-0.09,0.644-0.133c0.403-0.076,0.811-0.154,1.194-0.242
	c0.26-0.057,0.502-0.127,0.756-0.19c0.322-0.081,0.651-0.157,0.96-0.241c0.258-0.072,0.497-0.154,0.745-0.232
	c0.282-0.086,0.575-0.166,0.846-0.262c0.247-0.084,0.478-0.181,0.715-0.268c0.251-0.094,0.514-0.186,0.754-0.287
	c0.233-0.094,0.447-0.201,0.671-0.3c0.226-0.104,0.46-0.202,0.674-0.308c0.215-0.108,0.412-0.228,0.614-0.336
	c0.204-0.11,0.416-0.222,0.61-0.336c0.191-0.113,0.365-0.24,0.547-0.361c0.174-0.114,0.36-0.225,0.525-0.348
	c0.02-0.016,0.042-0.028,0.063-0.045c0.61-0.445,1.168-0.93,1.683-1.445c0.173-0.17,0.312-0.368,0.473-0.547
	c0.321-0.354,0.648-0.709,0.927-1.092c0.014-0.018,0.031-0.031,0.043-0.052c0.268-0.364,0.488-0.767,0.719-1.161
	c0.109-0.184,0.239-0.357,0.343-0.549c0.326-0.617,0.615-1.268,0.867-1.939c0.001,0,0.001-0.004,0.001-0.004l5.963-27.717
	C287.525,161.146,287.236,161.791,286.906,162.409z"/>
<g>
	<path fill="#70B0C8" stroke="#000000" stroke-width="2" stroke-linejoin="round" stroke-miterlimit="10" d="M287.775,160.465
		c-1.017,2.752-2.658,5.03-5.055,6.796c-2.771,2.034-6.857,3.44-12.282,4.204c-5.851,0.822-11.069,0.711-15.741-0.225
		L287.775,160.465z"/>
</g>
<polygon fill="#75A584" points="339.43,137.519 332.146,140.782 339.43,142.372 "/>
<polygon fill="#75A584" points="271.235,98.908 272.348,93.445 282.236,92.271 282.236,98.908 281.032,112.393 271.235,104.105 "/>
<polyline fill="#75A584" points="584.385,112.898 576.41,112.898 576.83,107.622 581.64,105.199 "/>
<polygon fill="#75A584" points="356.554,135.987 359.449,134.5 360.593,135.987 357.635,137.212 "/>
<path fill="#DCF0E3" d="M228.947,122.268c0,0-1.491-20.273,24.186-18.457C278.81,105.629,229.57,98.161,228.947,122.268z"/>
<polygon fill="#DCF0E3" points="287.775,97.149 303.451,95.327 307.79,104.52 302.037,97.149 "/>
<polygon fill="#DCF0E3" points="347.62,145.958 350.449,154.313 341.119,155.979 347.743,152.729 "/>
<polyline fill="#DCF0E3" points="371.327,86.488 373.358,86.354 383.53,85.684 386.093,92.916 381.488,88.025 "/>
<polygon fill="#DCF0E3" points="381.161,132.116 393.138,128.648 396.399,135.854 391.47,130.977 "/>
<path fill="#DCF0E3" d="M409.468,89.3c0,0-0.807-13.504,22.14-9.528C454.555,83.749,410.967,75.892,409.468,89.3z"/>
<path fill="#DCF0E3" d="M458.086,124.8c0,0,5.113,6.99-6.516,13.406C439.943,144.622,457.21,139.351,458.086,124.8z"/>
<path fill="#DCF0E3" d="M523.283,114.02c0,0,7.7,15.342-10.557,17.696C494.469,134.071,531.505,132.174,523.283,114.02z"/>
<path fill="#DCF0E3" d="M474.806,75.5c0,0,0.414-7.03,19.548-6.71C513.49,69.11,488.625,68.213,474.806,75.5z"/>
<polygon fill="#DCF0E3" points="534.84,68.452 533.124,64.225 541.836,62.809 535.381,65.631 "/>
<polyline fill="#DCF0E3" points="616.157,62.646 617.553,62.3 625.985,60.217 629.036,65.4 624.13,62.809 "/>
<polygon fill="#DCF0E3" points="551.199,108.689 548.015,100.843 556.163,100.35 551.199,101.692 "/>
<ellipse fill="#75A584" cx="102.623" cy="117.568" rx="93.661" ry="93.895"/>
<g>
	
		<ellipse fill="#90D1A5" stroke="#000000" stroke-width="2" stroke-miterlimit="10" cx="111.914" cy="125.407" rx="93.661" ry="93.895"/>
	<path fill="#314A5E" stroke="#000000" stroke-width="2" stroke-miterlimit="10" d="M131.677,79.864
		c-1.769,0-3.392,0.592-4.57,1.775V65.521c0-2.071-1.771-3.845-3.835-3.845H107.49c1.033,1.183,1.771,2.81,1.771,4.584
		c0,3.845-3.099,7.098-7.08,7.098c-3.834,0-7.081-3.106-7.081-7.098c0-1.775,0.591-3.402,1.771-4.584H81.087
		c-2.064,0-3.835,1.774-3.835,3.845v16.118c1.18-1.036,2.802-1.775,4.573-1.775c3.835,0,7.08,3.105,7.08,7.097
		c0,3.846-3.099,7.099-7.08,7.099c-1.771,0-3.394-0.591-4.573-1.774v15.378c0,2.07,1.771,3.844,3.835,3.844h15.782
		c-1.03,1.184-1.771,2.811-1.771,4.584c0,3.844,3.099,7.098,7.081,7.098c3.835,0,7.08-3.105,7.08-7.098
		c0-1.774-0.59-3.401-1.771-4.584h15.782c2.065,0,3.835-1.774,3.835-3.844V92.285c1.179,1.035,2.802,1.774,4.57,1.774
		c3.836,0,7.082-3.105,7.082-7.099C138.759,83.118,135.513,79.864,131.677,79.864z"/>
	<path fill="#FFFFFF" stroke="#000000" stroke-width="2" stroke-miterlimit="10" d="M178.288,141.968
		c-1.326-1.183-2.948-1.922-4.571-1.922l11.209-11.681c1.476-1.479,1.476-3.994-0.146-5.323L173.421,112.1
		c-0.146,1.627-0.737,3.253-1.916,4.437c-2.656,2.809-7.082,2.809-9.883,0.148c-2.802-2.663-2.802-7.098-0.148-9.908
		c1.182-1.331,2.804-1.923,4.427-2.07L154.69,93.47c-1.475-1.479-3.982-1.479-5.31,0.147l-11.211,11.682
		c1.624,0.147,3.246,0.738,4.572,1.921c2.802,2.662,2.802,7.099,0.148,9.908c-2.655,2.809-7.081,2.809-9.883,0.147
		c-1.329-1.183-1.917-2.809-2.064-4.436l-11.063,11.089c-1.475,1.48-1.475,3.992,0.148,5.324l11.356,10.941
		c-1.623,0.148-3.245,0.887-4.425,2.069c-2.655,2.81-2.655,7.246,0.148,9.907c2.802,2.662,7.228,2.662,9.883-0.146
		c1.179-1.332,1.916-2.811,1.916-4.585l11.358,10.943c1.476,1.478,3.982,1.478,5.31-0.147l10.767-11.091
		c0.148,1.626,0.887,3.252,2.066,4.437c2.802,2.662,7.227,2.662,9.881-0.148C181.091,149.066,181.091,144.63,178.288,141.968z"/>
	<path fill="#F87058" stroke="#000000" stroke-width="2" stroke-miterlimit="10" d="M108.224,166.218
		c-1.325-1.183-2.947-1.923-4.57-1.923l11.21-11.682c1.475-1.479,1.475-3.992-0.147-5.324l-11.357-10.941
		c-0.147,1.627-0.737,3.253-1.917,4.436c-2.655,2.811-7.08,2.811-9.884,0.148c-2.803-2.662-2.803-7.097-0.147-9.906
		c1.18-1.33,2.802-1.922,4.427-2.07l-11.358-10.942c-1.475-1.478-3.983-1.478-5.31,0.148l-11.211,11.681
		c1.623,0.146,3.246,0.738,4.574,1.922c2.802,2.661,2.802,7.098,0.146,9.907c-2.653,2.81-7.08,2.81-9.881,0.147
		c-1.328-1.184-1.919-2.81-2.063-4.436l-10.77,11.089c-1.474,1.479-1.474,3.992,0.148,5.322l11.356,10.942
		c-1.623,0.147-3.245,0.887-4.426,2.07c-2.655,2.809-2.655,7.246,0.148,9.908c2.803,2.661,7.228,2.661,9.882-0.148
		c1.181-1.332,1.917-2.809,1.917-4.582l11.356,10.941c1.477,1.477,3.983,1.477,5.312-0.148l10.767-11.091
		c0.148,1.626,0.886,3.255,2.066,4.438c2.802,2.661,7.227,2.661,9.881-0.148C111.029,173.463,111.029,168.879,108.224,166.218z"/>
</g>
<polyline fill="#DCF0E3" points="629.819,106.052 630.076,107.468 631.625,116.014 626.261,118.733 629.155,113.999 "/>
</svg>
