<svg id="Layer_1" enable-background="new 0 0 512 512" height="512" viewBox="0 0 512 512" width="512" xmlns="http://www.w3.org/2000/svg"><g><circle clip-rule="evenodd" cx="384" cy="120" fill="#fff4f4" fill-rule="evenodd" r="105"/><path clip-rule="evenodd" d="m384 15v210c57.832 0 105-47.168 105-105s-47.168-105-105-105z" fill="#f6efea" fill-rule="evenodd"/><path d="m401 152c-3.839 0-7.678-1.464-10.606-4.394l-17-17c-2.814-2.813-4.394-6.627-4.394-10.606v-34c0-8.284 6.716-15 15-15s15 6.716 15 15v27.787l12.606 12.607c5.858 5.858 5.858 15.355 0 21.213-2.928 2.929-6.767 4.393-10.606 4.393z" fill="#00429d"/><path d="m384 0c-66.168 0-120 53.832-120 120s53.832 120 120 120 120-53.832 120-120-53.832-120-120-120zm15 208.744v-1.744c0-8.284-6.716-15-15-15s-15 6.716-15 15v1.744c-37.631-6.34-67.403-36.113-73.743-73.744h1.743c8.284 0 15-6.716 15-15s-6.716-15-15-15h-1.743c6.341-37.631 36.112-67.403 73.743-73.743v1.743c0 8.284 6.716 15 15 15s15-6.716 15-15v-1.743c37.631 6.341 67.402 36.112 73.743 73.743h-1.743c-8.284 0-15 6.716-15 15s6.716 15 15 15h1.743c-6.34 37.631-36.112 67.403-73.743 73.744z" fill="#bee75e"/><path d="m411.606 126.394-12.606-12.607v-27.787c0-8.284-6.716-15-15-15v70.213l6.393 6.393c2.929 2.93 6.768 4.394 10.607 4.394s7.678-1.464 10.606-4.394c5.859-5.857 5.859-15.355 0-21.212z" fill="#00347b"/><path d="m384 0v48c8.284 0 15-6.716 15-15v-1.743c37.631 6.341 67.402 36.112 73.743 73.743h-1.743c-8.284 0-15 6.716-15 15s6.716 15 15 15h1.743c-6.34 37.631-36.112 67.403-73.743 73.744v-1.744c0-8.284-6.716-15-15-15v48c66.168 0 120-53.832 120-120s-53.832-120-120-120z" fill="#00cb75"/><g><path d="m306.225 512h-203.225l-15-13-15 13h-58c-8.284 0-15-6.716-15-15v-24.313c0-88.051 71.636-159.687 159.687-159.687h1.85c88.052 0 159.688 71.636 159.688 159.688v24.312c0 8.284-6.716 15-15 15z" fill="#7dd5f4"/></g><path d="m161.537 313h-.925v199h145.612c8.284 0 15-6.716 15-15v-24.313c.001-88.051-71.635-159.687-159.687-159.687z" fill="#4793ff"/><g><path d="m160.613 338.5c-49.626 0-90-40.374-90-90s180-49.626 180 0-40.374 90-90 90z" fill="#ffdecf"/></g><path d="m160.613 158.5c-49.626 0-90 40.374-90 90 0 3.359.191 6.674.552 9.939 6.064 1.032 12.221 1.561 18.367 1.561 26.05 0 51.387-9.454 71.081-26.244 19.694 16.79 45.03 26.244 71.081 26.244 6.147 0 12.303-.529 18.368-1.561.36-3.265.552-6.58.552-9.939-.001-49.626-40.375-90-90.001-90z" fill="#fdbf00"/><path d="m103 512v-79.111c0-8.284-6.716-15-15-15s-15 6.716-15 15v79.111z" fill="#4793ff"/><g><path d="m481.255 512h-194.51c-16.953 0-30.745-13.792-30.745-30.745v-156.732c0-16.953 13.792-30.745 30.745-30.745h194.511c16.953 0 30.745 13.792 30.745 30.745v156.732c-.001 16.953-13.793 30.745-30.746 30.745z" fill="#c3fdff"/></g><path d="m481.255 293.778h-97.255v218.222h97.255c16.953 0 30.745-13.792 30.745-30.745v-156.732c0-16.953-13.792-30.745-30.745-30.745z" fill="#66faff"/><ellipse clip-rule="evenodd" cx="384" cy="402.889" fill="#51faff" fill-rule="evenodd" rx="30" ry="30" transform="matrix(.974 -.227 .227 .974 -81.38 97.608)"/><path d="m160.613 211.28v127.22c49.626 0 90-40.374 90-90 0-24.813-45-37.22-90-37.22z" fill="#ffcdbe"/><path clip-rule="evenodd" d="m384 372.889v60c16.523 0 30-13.476 30-30s-13.476-30-30-30z" fill="#00e7f0" fill-rule="evenodd"/><path d="m160.613 158.5v75.257c19.694 16.79 45.03 26.243 71.08 26.243 6.147 0 12.303-.529 18.368-1.561.36-3.265.552-6.58.552-9.939 0-49.626-40.374-90-90-90z" fill="#ff8856"/></g></svg>